<svg width="21" height="18" viewBox="0 0 21 18" fill="none" xmlns="http://www.w3.org/2000/svg">
<path d="M5.42411 0C2.43217 0 0 2.54155 0 5.60305C0 6.67137 0.468643 7.59625 0.904018 8.26488C1.1605 8.66086 1.45594 9.02839 1.78562 9.36158L9.60429 17.4629L10.1243 18L10.6443 17.4629L18.4637 9.36158C18.4637 9.36158 20.25 7.73595 20.25 5.60305C20.25 2.54155 17.8178 0 14.8259 0C12.3424 0 10.7433 1.54345 10.125 2.1949C9.50665 1.54345 7.90762 0 5.42411 0ZM5.42411 1.49415C7.58507 1.49415 9.58259 3.66514 9.58259 3.66514L10.125 4.29568L10.6674 3.66514C10.6674 3.66514 12.6649 1.49415 14.8259 1.49415C17.0266 1.49415 18.8036 3.35884 18.8036 5.60305C18.8036 6.75579 17.4475 8.3112 17.4475 8.3112L10.125 15.8753L2.80246 8.3112C2.80246 8.3112 2.45242 7.96381 2.10166 7.42367C1.75163 6.88503 1.44643 6.18129 1.44643 5.60305C1.44643 3.35884 3.22337 1.49415 5.42411 1.49415Z" fill="#344054"/>
</svg>
