<svg width="25" height="24" viewBox="0 0 25 24" fill="none" xmlns="http://www.w3.org/2000/svg">
<g clip-path="url(#clip0_725_13759)">
<path d="M12.7094 4.98389C8.84937 4.98389 5.70947 8.13019 5.70947 11.9983C5.70947 15.866 8.84937 19.0123 12.7094 19.0123C16.5693 19.0123 19.7092 15.866 19.7092 11.9983C19.7092 8.13019 16.5693 4.98389 12.7094 4.98389Z" fill="#FFE33F"/>
<path d="M14.6584 13.2444C14.6584 14.0712 14.141 14.7794 13.4126 15.062V15.6404C13.4126 16.0289 13.0975 16.3435 12.7095 16.3435C12.3213 16.3435 12.0063 16.0289 12.0063 15.6404V15.1932H11.4636C11.0751 15.1932 10.7605 14.8783 10.7605 14.4903C10.7605 14.1021 11.0751 13.7872 11.4636 13.7872H12.7095C13.0089 13.7872 13.2522 13.5435 13.2522 13.2444C13.2522 12.9449 13.0089 12.7017 12.7095 12.7017C11.6346 12.7017 10.7605 11.827 10.7605 10.7524C10.7605 9.92566 11.278 9.21741 12.0063 8.93488V8.35645C12.0063 7.9679 12.3213 7.65332 12.7093 7.65332C13.0975 7.65332 13.4124 7.9679 13.4124 8.35645V8.80359H13.9551C14.3439 8.80359 14.6583 9.11853 14.6583 9.50653C14.6583 9.89471 14.3437 10.2097 13.9551 10.2097H12.7095C12.4099 10.2097 12.1666 10.4534 12.1666 10.7524C12.1666 11.0519 12.4099 11.2957 12.7095 11.2957C13.7841 11.2957 14.6584 12.1698 14.6584 13.2444Z" fill="white"/>
<path d="M21.4183 1.9118V3.97449C21.4183 4.33264 21.1638 4.64612 20.8135 4.72028L18.6988 5.14728C18.3729 5.14728 18.081 4.91931 18.0116 4.58807C17.932 4.20795 18.1757 3.83533 18.5558 3.75604L19.196 3.62201C17.3479 2.18463 15.0885 1.40607 12.7095 1.40607C9.87975 1.40607 7.21977 2.50745 5.2188 4.50842C3.79332 5.93372 2.80913 7.72174 2.37169 9.67896C1.94615 11.5856 2.05254 13.5687 2.67967 15.4144C2.80437 15.7819 2.60753 16.1812 2.24004 16.3063C2.16515 16.3317 2.08861 16.3438 2.01372 16.3438C1.72112 16.3438 1.44756 16.1596 1.34813 15.8666C0.638047 13.7769 0.517564 11.5309 0.999315 9.37299C1.4948 7.15466 2.60991 5.12842 4.22472 3.51434C6.49083 1.24768 9.5042 0 12.7095 0C15.3848 0 17.9267 0.869385 20.0121 2.47522V1.9118C20.0121 1.52325 20.327 1.20868 20.7152 1.20868C21.1032 1.20868 21.4183 1.52325 21.4183 1.9118V1.9118Z" fill="#44D1FE"/>
<path d="M24.4195 14.6236C23.9242 16.8419 22.8091 18.8681 21.1943 20.4822C18.9276 22.7489 15.9146 23.9984 12.7104 23.9999H12.7033C10.0171 23.9999 7.4663 23.1233 5.37761 21.5045L5.36223 22.104C5.35234 22.4859 5.03978 22.7886 4.65966 22.7892C4.65343 22.7892 4.64739 22.7886 4.64135 22.7886C4.25335 22.7789 3.94664 22.4559 3.95653 22.0679L4.00945 20.0056C4.01897 19.6471 4.28136 19.3406 4.63384 19.2759L6.61284 18.9145C6.99425 18.8447 7.36083 19.0978 7.43059 19.4797C7.50054 19.8617 7.24749 20.2277 6.86534 20.2976L6.25945 20.4082C8.09911 21.826 10.342 22.5938 12.7033 22.5938H12.7095C15.5387 22.5923 18.1987 21.4895 20.2 19.4883C21.6255 18.063 22.6099 16.2748 23.0471 14.3176C23.4726 12.4109 23.3663 10.4279 22.7391 8.58219C22.6144 8.2147 22.8113 7.81534 23.1788 7.69028C23.5468 7.56559 23.9456 7.76243 24.0707 8.12992C24.7809 10.2197 24.9014 12.4657 24.4195 14.6236Z" fill="#00C1FF"/>
<path d="M19.196 3.62201C17.3479 2.18463 15.0886 1.40607 12.7095 1.40607V0C15.3848 0 17.9267 0.869385 20.0121 2.47522V1.9118C20.0121 1.52325 20.327 1.20868 20.7152 1.20868C21.1034 1.20868 21.4183 1.52325 21.4183 1.9118V3.97449C21.4183 4.33264 21.1638 4.64612 20.8135 4.72028L18.6989 5.14728C18.3729 5.14728 18.0811 4.91931 18.0117 4.58807C17.932 4.20795 18.1757 3.83533 18.5558 3.75604L19.196 3.62201Z" fill="#00C1FF"/>
<path d="M24.4194 14.6236C23.9241 16.8419 22.809 18.8681 21.1942 20.4822C18.9276 22.7489 15.9146 23.9984 12.7104 23.9999H12.7095V22.5938C15.5386 22.5923 18.1986 21.4895 20.2 19.4883C21.6254 18.063 22.6098 16.2748 23.0471 14.3176C23.4726 12.4109 23.3662 10.4279 22.7391 8.58219C22.6144 8.2147 22.8112 7.81534 23.1787 7.69028C23.5468 7.56559 23.9456 7.76243 24.0706 8.12992C24.7809 10.2197 24.9014 12.4657 24.4194 14.6236V14.6236Z" fill="#44D1FE"/>
</g>
<defs>
<clipPath id="clip0_725_13759">
<rect width="24" height="24" fill="white" transform="translate(0.662598)"/>
</clipPath>
</defs>
</svg>
