<svg width="24" height="24" viewBox="0 0 24 24" fill="none" xmlns="http://www.w3.org/2000/svg">
<g clip-path="url(#clip0_725_13699)">
<path fill-rule="evenodd" clip-rule="evenodd" d="M2.32485 13.1329L1.08613 13.9718V16.4927L8.46819 17.8046L12.9636 16.4927L15.1457 13.2803L12.9636 10.4061L7.3311 9.70679L1.12673 10.4061C1.04676 10.4142 1.08609 12.046 1.08609 12.2425L2.32485 13.1329Z" fill="#FFE07D"/>
<path fill-rule="evenodd" clip-rule="evenodd" d="M18.7817 6.63419L18.2437 5.39683C18.1651 5.2179 18.0838 5.04175 17.8886 5.04175H13.3187C13.1236 5.04175 12.9636 5.20169 12.9636 5.39683V8.8623V10.406V16.4926L18.1766 17.6748L23.2391 16.4926C23.2391 13.6573 23.2391 13.45 23.2391 11.6895C23.2391 11.4116 23.2513 11.104 22.7323 10.8844L20.2156 9.92762L18.7817 6.63419Z" fill="#245EE0"/>
<path fill-rule="evenodd" clip-rule="evenodd" d="M19.5193 16.4927C19.7334 16.8817 19.8554 17.3289 19.8554 17.8047C19.8554 17.9646 19.8418 18.1205 19.8161 18.2722H23.3883C23.5293 18.2722 23.6444 18.157 23.6444 18.0161V16.7488C23.6444 16.6079 23.5292 16.4927 23.3883 16.4927H23.2392H19.5193V16.4927Z" fill="#CDE2FF"/>
<path fill-rule="evenodd" clip-rule="evenodd" d="M7.70532 16.4927C7.91945 16.8816 8.04142 17.3289 8.04142 17.8046C8.04142 17.9646 8.02787 18.1204 8.00078 18.2722H16.3949C16.3692 18.1204 16.3556 17.9646 16.3556 17.8046C16.3556 17.3289 16.4776 16.8816 16.6917 16.4927H12.9636H7.70532Z" fill="#CDE2FF"/>
<path fill-rule="evenodd" clip-rule="evenodd" d="M0.355713 16.7488V18.016C0.355713 18.157 0.470932 18.2722 0.611838 18.2722H3.49029C3.4632 18.1204 3.44965 17.9646 3.44965 17.8046C3.44965 17.3289 3.57162 16.8816 3.7871 16.4927H1.08617H0.611885C0.470932 16.4926 0.355713 16.6078 0.355713 16.7488V16.7488Z" fill="#CDE2FF"/>
<path fill-rule="evenodd" clip-rule="evenodd" d="M1.72046 6.68714V8.86237L4.76438 9.70673L7.8083 8.86237V6.39844H2.00912C1.85054 6.39844 1.72046 6.52856 1.72046 6.68714Z" fill="#FFD099"/>
<path fill-rule="evenodd" clip-rule="evenodd" d="M7.33105 6.39854V8.86248L9.42323 9.70684L11.3697 8.86248V5.11239C11.3697 4.95381 11.2396 4.82373 11.0797 4.82373H7.61971C7.46113 4.82373 7.33105 4.95386 7.33105 5.11239V6.39854Z" fill="#FFD099"/>
<path fill-rule="evenodd" clip-rule="evenodd" d="M16.822 5.39678L17.36 6.63414L18.7884 9.92748C19.0432 10.555 19.0283 10.6268 19.6449 10.8477L21.5965 11.5457C22.1155 11.7639 22.1033 12.0715 22.1033 12.3507V12.5432V14.2726V16.4925H23.239V14.2726V12.5432V11.6894C23.239 11.4115 23.2512 11.1039 22.7322 10.8843L20.2154 9.92753L18.7816 6.63419L18.2435 5.39683C18.1649 5.2179 18.0836 5.04175 17.8885 5.04175H16.4668C16.6621 5.0417 16.7447 5.2179 16.822 5.39678V5.39678Z" fill="#245EE0" fill-opacity="0.8"/>
<path fill-rule="evenodd" clip-rule="evenodd" d="M0.355713 9.65107C0.363822 10.0536 0.686416 10.3829 1.08621 10.4046C1.09976 10.4046 1.11331 10.406 1.12685 10.406H12.9636V8.8623H11.3698H7.33118H1.72048H1.12685C0.708072 8.8623 0.365182 9.19976 0.355713 9.61718V9.65107Z" fill="#F9F6F6"/>
<path fill-rule="evenodd" clip-rule="evenodd" d="M14.9341 7.16687V9.39498C14.9341 9.68771 15.1739 9.92762 15.4667 9.92762H20.2155L18.7816 6.63428H15.4667C15.1739 6.63423 14.9341 6.87414 14.9341 7.16687V7.16687Z" fill="#E8F2FF"/>
<path fill-rule="evenodd" clip-rule="evenodd" d="M21.3093 12.9756V13.8416C21.3093 14.0788 21.5031 14.2726 21.7403 14.2726H23.2392V12.5432H21.7403C21.5032 12.5433 21.3093 12.7384 21.3093 12.9756V12.9756Z" fill="white"/>
<path fill-rule="evenodd" clip-rule="evenodd" d="M18.1759 16.6133C18.8346 16.6133 19.3686 17.1473 19.3686 17.8046C19.3686 17.9713 19.3347 18.1285 19.2737 18.2722C19.0921 18.6978 18.6692 18.9973 18.1759 18.9973C17.684 18.9973 17.2611 18.6977 17.0795 18.2722C17.0185 18.1285 16.9846 17.9713 16.9846 17.8046C16.9847 17.1473 17.5186 16.6133 18.1759 16.6133ZM15.7907 16.4927C15.5766 16.8817 15.4546 17.3289 15.4546 17.8047C15.4546 17.9646 15.4681 18.1205 15.4939 18.2723C15.7148 19.553 16.8315 20.5275 18.1759 20.5275C19.5203 20.5275 20.637 19.553 20.8593 18.2723C20.8851 18.1205 20.8986 17.9646 20.8986 17.8047C20.8986 17.329 20.7766 16.8817 20.5625 16.4927C20.099 15.6525 19.2045 15.0833 18.1759 15.0833C17.1487 15.0833 16.2542 15.6525 15.7907 16.4927Z" fill="#5587AD"/>
<path fill-rule="evenodd" clip-rule="evenodd" d="M16.9846 17.8046C16.9846 17.9713 17.0185 18.1285 17.0795 18.2721C17.2611 18.6977 17.6839 18.9972 18.1759 18.9972C18.6692 18.9972 19.0921 18.6977 19.2737 18.2721C19.3347 18.1285 19.3685 17.9713 19.3685 17.8046C19.3685 17.1472 18.8346 16.6133 18.1759 16.6133C17.5186 16.6132 16.9846 17.1472 16.9846 17.8046Z" fill="#F9F6F6"/>
<path fill-rule="evenodd" clip-rule="evenodd" d="M17.3601 6.63428L17.7423 7.52336L18.7886 9.92762H20.2156L18.7818 6.63428H17.3601Z" fill="#CDE2FF"/>
<path fill-rule="evenodd" clip-rule="evenodd" d="M22.533 12.5435V13.4339V14.2728H23.239V12.5435H22.533Z" fill="#CDE2FF"/>
<path fill-rule="evenodd" clip-rule="evenodd" d="M11.6707 8.8623H12.9636V10.406H11.6707V8.8623Z" fill="#CDE2FF"/>
<path fill-rule="evenodd" clip-rule="evenodd" d="M11.6707 10.406H12.9636V16.4926H11.6707V10.406Z" fill="#FFCE5F"/>
<path fill-rule="evenodd" clip-rule="evenodd" d="M6.0166 6.39844H7.33121V8.86237H6.0166V6.39844Z" fill="#F9AD55"/>
<path fill-rule="evenodd" clip-rule="evenodd" d="M10.2964 5.11239V8.86248H11.3698V5.11239C11.3698 4.95381 11.2396 4.82373 11.0797 4.82373H10.0063C10.1663 4.82368 10.2964 4.95381 10.2964 5.11239V5.11239Z" fill="#F9AD55"/>
<path fill-rule="evenodd" clip-rule="evenodd" d="M18.1759 16.6133C18.02 16.6133 17.8709 16.6431 17.7341 16.6973C18.1705 16.8749 18.4795 17.3031 18.4795 17.8032C18.4795 17.9686 18.4456 18.1272 18.3846 18.2708V18.2722C18.2599 18.5622 18.0241 18.7926 17.73 18.9105C17.8682 18.9661 18.0186 18.9973 18.1759 18.9973C18.6692 18.9973 19.092 18.6977 19.2736 18.2722C19.3346 18.1285 19.3685 17.9713 19.3685 17.8046C19.3685 17.1473 18.8345 16.6133 18.1759 16.6133Z" fill="#DDDAEC"/>
<path fill-rule="evenodd" clip-rule="evenodd" d="M1.08618 12.2424V13.9718H2.47124C2.70843 13.9718 2.90221 13.778 2.90221 13.5408V12.6748C2.90221 12.4363 2.70843 12.2425 2.47124 12.2425H1.08618V12.2424Z" fill="#245EE0"/>
<path fill-rule="evenodd" clip-rule="evenodd" d="M3.36016 16.4927C3.14467 16.8817 3.02271 17.3289 3.02271 17.8047C3.02271 17.9646 3.03625 18.1205 3.06335 18.2723C3.28427 19.553 4.40097 20.5275 5.74539 20.5275C7.08981 20.5275 8.20652 19.553 8.42744 18.2723C8.45453 18.1205 8.46808 17.9646 8.46808 17.8047C8.46808 17.329 8.34611 16.8817 8.13199 16.4927C7.66849 15.6525 6.77266 15.0833 5.74539 15.0833C4.71813 15.0833 3.8223 15.6525 3.36016 16.4927Z" fill="#5587AD"/>
<path fill-rule="evenodd" clip-rule="evenodd" d="M4.5542 17.8046C4.5542 17.9713 4.58809 18.1285 4.64907 18.2721C4.83067 18.6977 5.25353 18.9972 5.74548 18.9972C6.23879 18.9972 6.66029 18.6977 6.84189 18.2721C6.90423 18.1285 6.93676 17.9713 6.93676 17.8046C6.93676 17.1472 6.40417 16.6133 5.74548 16.6133C5.08679 16.6133 4.5542 17.1472 4.5542 17.8046V17.8046Z" fill="#F9F6F6"/>
<path fill-rule="evenodd" clip-rule="evenodd" d="M5.74544 16.6133C5.58958 16.6133 5.43915 16.6431 5.30364 16.6973C5.74005 16.8749 6.04905 17.3031 6.04905 17.8032C6.04905 17.9686 6.01515 18.1272 5.95417 18.2708C5.95417 18.2708 5.95281 18.2708 5.95281 18.2722C5.82948 18.5622 5.59365 18.7926 5.29956 18.9105C5.43779 18.9661 5.58822 18.9973 5.74544 18.9973C6.23875 18.9973 6.66025 18.6977 6.84184 18.2722C6.90419 18.1285 6.93672 17.9713 6.93672 17.8046C6.93667 17.1473 6.40408 16.6133 5.74544 16.6133V16.6133Z" fill="#CDE2FF"/>
<path fill-rule="evenodd" clip-rule="evenodd" d="M22.3596 16.7488V18.0161C22.3596 18.157 22.2444 18.2722 22.1035 18.2722H23.3883C23.5293 18.2722 23.6444 18.157 23.6444 18.0161V16.7488C23.6444 16.6079 23.5292 16.4927 23.3883 16.4927H23.2393H22.1035C22.2444 16.4927 22.3596 16.6079 22.3596 16.7488Z" fill="#B8D6FF"/>
<path fill-rule="evenodd" clip-rule="evenodd" d="M17.6704 15.1293C18.9308 15.3665 19.8862 16.4751 19.8862 17.8047C19.8862 19.1355 18.9308 20.2428 17.6704 20.48C17.8344 20.5112 18.0038 20.5275 18.1759 20.5275C19.5203 20.5275 20.637 19.553 20.8593 18.2723C20.8851 18.1205 20.8986 17.9646 20.8986 17.8047C20.8986 17.329 20.7766 16.8817 20.5625 16.4927C20.099 15.6525 19.2045 15.0833 18.1759 15.0833C18.0038 15.0833 17.8344 15.0982 17.6704 15.1293Z" fill="#418CC3"/>
<path fill-rule="evenodd" clip-rule="evenodd" d="M5.23877 15.1293C6.5005 15.3665 7.4546 16.4751 7.4546 17.8047C7.4546 19.1355 6.5005 20.2428 5.23877 20.48C5.40274 20.5112 5.57214 20.5275 5.74563 20.5275C7.09005 20.5275 8.20675 19.553 8.42768 18.2723C8.45477 18.1205 8.46832 17.9646 8.46832 17.8047C8.46832 17.329 8.34635 16.8817 8.13222 16.4927C7.66872 15.6525 6.77289 15.0833 5.74563 15.0833C5.57214 15.0833 5.40274 15.0982 5.23877 15.1293V15.1293Z" fill="#418CC4"/>
<path d="M18.1759 16.2576C17.3229 16.2576 16.6289 16.9516 16.6289 17.8045C16.6289 18.6583 17.3229 19.3529 18.1759 19.3529C19.0296 19.3529 19.7242 18.6583 19.7242 17.8045C19.7242 16.9515 19.0296 16.2576 18.1759 16.2576V16.2576ZM18.1759 18.6415C17.7151 18.6415 17.3403 18.2661 17.3403 17.8045C17.3403 17.3438 17.7151 16.9689 18.1759 16.9689C18.6374 16.9689 19.0128 17.3438 19.0128 17.8045C19.0128 18.266 18.6374 18.6415 18.1759 18.6415Z" fill="#353535"/>
<path d="M5.74546 16.2576C4.89247 16.2576 4.19849 16.9516 4.19849 17.8045C4.19849 18.6583 4.89247 19.3529 5.74546 19.3529C6.59844 19.3529 7.29238 18.6583 7.29238 17.8045C7.29238 16.9515 6.59844 16.2576 5.74546 16.2576ZM5.74546 18.6415C5.28467 18.6415 4.90986 18.2661 4.90986 17.8045C4.90986 17.3438 5.28472 16.9689 5.74546 16.9689C6.20619 16.9689 6.581 17.3438 6.581 17.8045C6.581 18.266 6.20619 18.6415 5.74546 18.6415V18.6415Z" fill="#353535"/>
</g>
<defs>
<clipPath id="clip0_725_13699">
<rect width="24" height="24" fill="white"/>
</clipPath>
</defs>
</svg>
