<svg width="25" height="24" viewBox="0 0 25 24" fill="none" xmlns="http://www.w3.org/2000/svg">
<g clip-path="url(#clip0_727_13790)">
<path d="M12.0723 0C5.4552 0 0.0722656 5.38293 0.0722656 12C0.0722656 18.6171 5.4552 24 12.0723 24C18.6893 24 24.0723 18.6171 24.0723 12C24.0723 5.38293 18.6893 0 12.0723 0Z" fill="#245EE0" fill-opacity="0.8"/>
<path d="M13.0721 17.9999C13.0721 18.5522 12.6245 18.9999 12.0722 18.9999C11.52 18.9999 11.0723 18.5522 11.0723 17.9999C11.0723 17.4477 11.52 17 12.0722 17C12.6245 17 13.0721 17.4477 13.0721 17.9999Z" fill="#ECEFF1"/>
<path d="M13.6552 12.642C13.3013 12.805 13.0722 13.162 13.0722 13.5511V14.0001C13.0722 14.552 12.6252 15.0001 12.0723 15.0001C11.5193 15.0001 11.0723 14.552 11.0723 14.0001V13.5511C11.0723 12.384 11.7582 11.3141 12.8173 10.8251C13.8363 10.3561 14.5722 9.11102 14.5722 8.5C14.5722 7.12213 13.4512 6.00006 12.0723 6.00006C10.6933 6.00006 9.57233 7.12213 9.57233 8.5C9.57233 9.05206 9.12518 9.50012 8.5722 9.50012C8.01923 9.50012 7.57227 9.05206 7.57227 8.5C7.57227 6.0191 9.59119 4 12.0723 4C14.5533 4 16.5723 6.0191 16.5723 8.5C16.5723 9.85114 15.4002 11.8371 13.6552 12.642V12.642Z" fill="#FAFAFA"/>
</g>
<defs>
<clipPath id="clip0_727_13790">
<rect width="24" height="24" fill="white" transform="translate(0.0722656)"/>
</clipPath>
</defs>
</svg>
