<svg width="28" height="24" viewBox="0 0 28 24" fill="none" xmlns="http://www.w3.org/2000/svg">
<g clip-path="url(#clip0_727_13784)">
<path d="M20.3296 17.3915L24.7655 15.2963C25.7437 14.8024 26.9369 15.1645 27.4758 16.1183L18.4593 21.9508C17.2503 22.5087 15.8936 22.6622 14.5906 22.3887L8.37199 20.6433C7.79982 20.4829 7.18742 20.5498 6.66338 20.8304L5.36304 21.5263L5.53805 15.1838L5.58988 15.185C7.44808 13.8647 9.88857 13.6939 11.9126 14.7427L12.2849 14.9354C12.8669 15.2368 13.5094 15.403 14.1648 15.4207L17.8205 15.5217C18.9675 15.553 19.9717 16.3012 20.3296 17.3915V17.3915Z" fill="#F6EEE2"/>
<path d="M20.0024 7.33301C20.0024 10.6467 17.3161 13.333 14.0023 13.333C10.6886 13.333 8.00244 10.6467 8.00244 7.33301C8.00244 4.01935 10.6886 1.33301 14.0023 1.33301C17.3161 1.33301 20.0024 4.01935 20.0024 7.33301V7.33301Z" fill="#FEDB41"/>
<path d="M14.0024 6.23387C13.4154 6.23387 12.9392 5.80033 12.9392 5.26533C12.9392 4.73053 13.4154 4.29678 14.0024 4.29678C14.5896 4.29678 15.0655 4.73053 15.0655 5.26533C15.0655 5.50095 15.2752 5.69199 15.5339 5.69199C15.7925 5.69199 16.0022 5.50095 16.0022 5.26533C16.0011 4.40345 15.3381 3.65991 14.4122 3.4822V3.09366C14.4122 2.85803 14.2025 2.66699 13.9438 2.66699C13.6852 2.66699 13.4755 2.85803 13.4755 3.09366V3.50824C12.5093 3.74845 11.8871 4.60324 12.0204 5.50762C12.1535 6.4122 13.0007 7.08741 14.0024 7.0872C14.5851 7.08303 15.063 7.50699 15.0738 8.03762C15.0845 8.56845 14.6239 9.00803 14.0415 9.02324C13.9889 9.01283 13.9349 9.01095 13.8819 9.01783C13.344 8.96428 12.9372 8.54928 12.9392 8.05637C12.9392 7.82074 12.7295 7.6297 12.4709 7.6297C12.2122 7.6297 12.0025 7.82074 12.0025 8.05637C11.9996 8.87866 12.604 9.59991 13.4755 9.81408V10.2403C13.4755 10.476 13.6852 10.667 13.9438 10.667C14.2025 10.667 14.4122 10.476 14.4122 10.2403V9.83949C15.4152 9.64824 16.0971 8.79699 15.9917 7.86845C15.8861 6.93991 15.0273 6.23408 14.0024 6.23387Z" fill="white"/>
<path d="M20.4638 18.8197H20.45L18.6691 18.6667C18.3899 18.659 17.3202 18.567 17.3358 18C17.3433 17.7243 18.3902 17.7859 18.6691 17.7936H19.9146C19.8978 17.7111 19.8761 17.6299 19.8497 17.55C19.5574 16.6628 18.7406 16.0539 17.8068 16.0272L14.1509 15.926C13.4198 15.9053 12.7025 15.7199 12.0526 15.3842L11.6806 15.1917C9.82558 14.2248 7.58503 14.3815 5.88284 15.5972C5.65525 15.7589 5.33955 15.7053 5.17787 15.4778C5.01619 15.2502 5.06975 14.9345 5.29734 14.7728C7.30783 13.3372 9.95443 13.152 12.1454 14.2939L12.5176 14.4865C13.032 14.7523 13.5997 14.8987 14.1786 14.9155L17.8345 15.0164C18.6895 15.0394 19.5004 15.4012 20.0884 16.0225C20.6763 16.6436 20.9933 17.4732 20.9691 18.328C20.9617 18.602 20.7378 18.8199 20.4638 18.8197Z" fill="#EFEAE3"/>
<path d="M5.3636 21.5258V21.5258C5.35269 21.9201 5.02427 22.2309 4.62999 22.2201L2.33544 22.1572C1.78332 22.1421 1.34801 21.6822 1.36321 21.1301L1.55033 14.3326C1.56552 13.7805 2.02535 13.3453 2.5774 13.3605L4.58681 13.4156C5.13891 13.4308 5.57417 13.8907 5.55898 14.4428L5.5386 15.1833L5.3636 21.5258Z" fill="url(#paint0_linear_727_13784)"/>
</g>
<defs>
<linearGradient id="paint0_linear_727_13784" x1="3.46109" y1="13.333" x2="3.62393" y2="30.0995" gradientUnits="userSpaceOnUse">
<stop stop-color="#005ECE"/>
<stop offset="1" stop-color="#005ECE" stop-opacity="0"/>
</linearGradient>
<clipPath id="clip0_727_13784">
<rect width="27.7895" height="24" fill="white" transform="translate(0.00244141)"/>
</clipPath>
</defs>
</svg>
