<svg width="17" height="18" viewBox="0 0 17 18" fill="none" xmlns="http://www.w3.org/2000/svg">
<path d="M8.4375 0C5.18484 0 2.53125 2.57318 2.53125 5.72727C2.53125 7.69909 3.56906 9.45 5.14181 10.4834C2.13216 11.7352 0 14.6315 0 18H1.6875C1.6875 14.3755 4.69969 11.4545 8.4375 11.4545C12.1753 11.4545 15.1875 14.3755 15.1875 18H16.875C16.875 14.6315 14.7428 11.736 11.7332 10.4825C12.5359 9.95709 13.1936 9.24889 13.6487 8.4199C14.1038 7.59091 14.3424 6.66641 14.3438 5.72727C14.3438 2.57318 11.6902 0 8.4375 0ZM8.4375 1.63636C10.7772 1.63636 12.6562 3.45845 12.6562 5.72727C12.6562 7.99609 10.7772 9.81818 8.4375 9.81818C6.09778 9.81818 4.21875 7.99609 4.21875 5.72727C4.21875 3.45845 6.09778 1.63636 8.4375 1.63636Z" fill="#344054"/>
</svg>
