<svg width="1370" height="236" viewBox="0 0 1517 236" fill="none" xmlns="http://www.w3.org/2000/svg">
<rect width="1517" height="236" fill="white"/>
<path d="M59.4731 122.684C59.5659 122.659 59.7576 122.622 60.0483 122.572C60.6235 122.473 61.0008 122.34 61.1802 122.173C61.2915 122.068 61.3626 121.867 61.3936 121.57C61.3997 121.496 61.4214 120.553 61.4585 118.741L61.4492 117.72L61.4585 116.486L61.4214 113.323L61.4307 112.952C61.4307 112.791 61.3874 112.667 61.3008 112.581C61.2575 112.537 61.1369 112.516 60.939 112.516C60.7782 112.516 60.5926 112.534 60.3823 112.571C60.1102 112.584 59.8659 112.608 59.6494 112.646C59.6123 112.652 59.5535 112.661 59.4731 112.673L59.4639 111.857C59.8288 111.739 60.3514 111.625 61.0317 111.514C62.1574 111.328 63.5428 111.235 65.188 111.235C66.561 111.235 67.5661 111.313 68.2031 111.467C69.168 111.708 69.9535 112.067 70.5596 112.543C71.3698 113.181 71.9759 113.92 72.3779 114.761C72.7861 115.596 72.9902 116.508 72.9902 117.498C72.9902 118.747 72.7181 119.82 72.1738 120.717C71.6296 121.607 70.8472 122.322 69.8267 122.86C69.1092 123.243 68.1351 123.435 66.9043 123.435L65.0024 123.352L64.4458 123.324L63.6943 123.342L63.4717 123.324L62.6924 123.342L61.6626 123.333C61.6255 123.333 61.3101 123.355 60.7163 123.398C60.5184 123.41 60.2586 123.42 59.937 123.426C59.7391 123.426 59.5907 123.429 59.4917 123.435C59.4793 123.299 59.4731 123.049 59.4731 122.684ZM63.9727 112.349C63.9541 112.54 63.9448 112.676 63.9448 112.757L63.9727 114.334L63.9541 115.707C63.9727 116.152 63.9819 116.542 63.9819 116.876L63.9727 117.757L63.9912 119.232L63.9727 120.142C63.9727 120.989 64.1304 121.564 64.4458 121.867C64.9035 122.3 65.5343 122.517 66.3384 122.517C66.9507 122.517 67.4022 122.458 67.6929 122.34C68.299 122.105 68.7783 121.793 69.1309 121.403C69.4896 121.014 69.7617 120.463 69.9473 119.752C70.1328 119.035 70.2256 118.295 70.2256 117.535C70.2256 116.285 70.0246 115.265 69.6226 114.473C69.2267 113.681 68.6825 113.088 67.9897 112.692C67.297 112.29 66.5023 112.089 65.6055 112.089C64.9746 112.089 64.4303 112.175 63.9727 112.349ZM76.9587 117.284C76.9587 116.517 77.1071 115.747 77.404 114.974C77.6205 114.417 77.9236 113.907 78.3132 113.443C78.7029 112.979 79.1915 112.568 79.779 112.209C80.3666 111.845 80.9665 111.585 81.5788 111.43C82.1911 111.269 82.8746 111.189 83.6291 111.189C84.9156 111.189 86.032 111.43 86.9782 111.913C87.9245 112.395 88.6698 113.048 89.2141 113.87C89.9192 114.94 90.2717 116.063 90.2717 117.238C90.2717 118.988 89.6749 120.488 88.4812 121.737C87.2937 122.987 85.6392 123.611 83.5178 123.611C82.9921 123.611 82.5004 123.577 82.0427 123.509C81.6963 123.46 81.3933 123.392 81.1335 123.305C80.6635 123.151 80.4006 123.061 80.3449 123.036C79.6708 122.653 79.1296 122.26 78.7214 121.858C78.3132 121.456 77.9668 121.001 77.6823 120.494C77.5277 120.21 77.3515 119.696 77.1535 118.954C77.0237 118.478 76.9587 117.921 76.9587 117.284ZM83.2766 112.107C82.7385 112.107 82.2623 112.234 81.8479 112.488C81.4335 112.735 81.1211 113.01 80.9109 113.313C80.5583 113.827 80.3078 114.39 80.1594 115.002C80.011 115.608 79.9367 116.347 79.9367 117.219C79.9367 117.751 79.9584 118.132 80.0017 118.36C80.0141 118.435 80.0326 118.561 80.0573 118.741C80.113 119.198 80.1779 119.532 80.2522 119.743C80.5181 120.528 80.7068 121.014 80.8181 121.199C81.0036 121.515 81.2789 121.827 81.6438 122.136C81.8293 122.297 82.0984 122.445 82.4509 122.582C82.8034 122.711 83.156 122.776 83.5085 122.776C84.1765 122.776 84.795 122.622 85.364 122.312C85.9392 121.997 86.4 121.465 86.7463 120.717C87.0927 119.968 87.2658 118.994 87.2658 117.794C87.2658 117.3 87.2318 116.629 87.1638 115.781L87.1174 115.605C87.0988 115.556 87.0679 115.429 87.0246 115.225C86.7958 114.21 86.3567 113.437 85.7072 112.905C85.064 112.373 84.2538 112.107 83.2766 112.107ZM94.2309 122.869C94.3917 122.783 94.6298 122.721 94.9453 122.684C95.2607 122.64 95.5452 122.572 95.7988 122.479C95.8297 122.356 95.8483 122.266 95.8544 122.21C95.8668 122.124 95.873 121.827 95.873 121.32L95.8637 119.251L95.9008 118.138L95.8823 117.275L95.9008 116.774C95.9194 116.1 95.9287 115.469 95.9287 114.881C95.9287 113.595 95.9132 112.772 95.8823 112.414L95.3349 112.302C94.8339 112.271 94.4999 112.24 94.333 112.209L94.3144 111.653L94.3515 111.551C94.6608 111.501 94.9453 111.477 95.205 111.477C95.3473 111.477 95.6349 111.473 96.0678 111.467C96.5131 111.504 96.7543 111.523 96.7914 111.523L97.2831 111.495L98.4428 111.439C99.1664 111.365 99.9303 111.328 100.734 111.328C102.002 111.328 103.01 111.653 103.759 112.302C104.507 112.945 104.881 113.685 104.881 114.52C104.881 115.144 104.677 115.713 104.269 116.227C103.867 116.734 103.245 117.117 102.404 117.377C102.478 117.507 102.577 117.658 102.701 117.832C102.961 118.203 103.171 118.518 103.332 118.778L104.816 121.181C105.187 121.818 105.429 122.192 105.54 122.303C105.657 122.408 105.896 122.526 106.254 122.656C106.533 122.761 106.746 122.866 106.894 122.971C106.932 123.076 106.95 123.169 106.95 123.25C106.95 123.305 106.947 123.376 106.941 123.463H106.69L106.505 123.472L106.022 123.407H105.642C105.444 123.376 105.2 123.361 104.909 123.361L103.981 123.352C103.913 123.352 103.697 123.373 103.332 123.417C103.165 123.435 103.032 123.451 102.933 123.463L102.618 122.851C102.358 122.387 102.175 122.04 102.07 121.812C101.798 121.212 101.331 120.256 100.669 118.945C100.36 118.339 100.144 117.995 100.02 117.915C99.8344 117.785 99.5159 117.72 99.0644 117.72C98.9407 117.72 98.7304 117.726 98.4335 117.739C98.415 117.918 98.4057 118.132 98.4057 118.379L98.4428 120.438L98.3964 122.183C98.5696 122.288 98.7954 122.368 99.0737 122.424C99.5561 122.523 99.9705 122.64 100.317 122.776C100.317 123.079 100.304 123.308 100.28 123.463C100.162 123.457 100.088 123.454 100.057 123.454L99.6767 123.472C98.3469 123.355 97.5584 123.296 97.311 123.296C97.1502 123.296 97.0358 123.299 96.9677 123.305L95.6874 123.389C95.2978 123.432 94.9422 123.454 94.6205 123.454H94.2216C94.2093 123.299 94.2031 123.2 94.2031 123.157C94.2031 123.089 94.2123 122.993 94.2309 122.869ZM98.4057 116.867C98.7026 116.879 98.9191 116.885 99.0551 116.885C100.107 116.885 100.852 116.697 101.291 116.319C101.73 115.942 101.95 115.438 101.95 114.807C101.95 114.417 101.894 114.053 101.783 113.712C101.678 113.366 101.545 113.109 101.384 112.942C101.155 112.701 100.855 112.519 100.484 112.395C100.212 112.302 99.7757 112.256 99.1757 112.256C98.8912 112.256 98.6469 112.271 98.4428 112.302L98.4335 112.479L98.4428 113.731L98.4243 114.492L98.4335 115.503C98.4212 115.787 98.4119 116.155 98.4057 116.607V116.867ZM109.462 117.284C109.462 116.517 109.611 115.747 109.907 114.974C110.124 114.417 110.427 113.907 110.817 113.443C111.206 112.979 111.695 112.568 112.282 112.209C112.87 111.845 113.47 111.585 114.082 111.43C114.694 111.269 115.378 111.189 116.132 111.189C117.419 111.189 118.535 111.43 119.482 111.913C120.428 112.395 121.173 113.048 121.717 113.87C122.423 114.94 122.775 116.063 122.775 117.238C122.775 118.988 122.178 120.488 120.985 121.737C119.797 122.987 118.143 123.611 116.021 123.611C115.495 123.611 115.004 123.577 114.546 123.509C114.2 123.46 113.897 123.392 113.637 123.305C113.167 123.151 112.904 123.061 112.848 123.036C112.174 122.653 111.633 122.26 111.225 121.858C110.817 121.456 110.47 121.001 110.186 120.494C110.031 120.21 109.855 119.696 109.657 118.954C109.527 118.478 109.462 117.921 109.462 117.284ZM115.78 112.107C115.242 112.107 114.766 112.234 114.351 112.488C113.937 112.735 113.625 113.01 113.414 113.313C113.062 113.827 112.811 114.39 112.663 115.002C112.514 115.608 112.44 116.347 112.44 117.219C112.44 117.751 112.462 118.132 112.505 118.36C112.517 118.435 112.536 118.561 112.561 118.741C112.616 119.198 112.681 119.532 112.756 119.743C113.021 120.528 113.21 121.014 113.321 121.199C113.507 121.515 113.782 121.827 114.147 122.136C114.333 122.297 114.602 122.445 114.954 122.582C115.307 122.711 115.659 122.776 116.012 122.776C116.68 122.776 117.298 122.622 117.867 122.312C118.443 121.997 118.903 121.465 119.25 120.717C119.596 119.968 119.769 118.994 119.769 117.794C119.769 117.3 119.735 116.629 119.667 115.781L119.621 115.605C119.602 115.556 119.571 115.429 119.528 115.225C119.299 114.21 118.86 113.437 118.211 112.905C117.567 112.373 116.757 112.107 115.78 112.107ZM133.794 111.699C133.856 111.91 133.912 112.228 133.961 112.655C134.036 113.292 134.073 113.787 134.073 114.139C134.073 114.25 134.06 114.371 134.036 114.501L133.943 114.529L133.275 114.482L133.163 114.464C132.891 113.647 132.619 113.094 132.347 112.803C131.877 112.308 131.323 112.061 130.686 112.061C130.08 112.061 129.598 112.222 129.239 112.543C128.887 112.859 128.71 113.252 128.71 113.722C128.71 114.118 128.887 114.498 129.239 114.863C129.585 115.228 130.322 115.577 131.447 115.911C131.824 116.022 132.279 116.202 132.811 116.449C133.349 116.697 133.757 116.966 134.036 117.256C134.407 117.64 134.66 118.011 134.796 118.37C134.939 118.722 135.01 119.164 135.01 119.696C135.01 120.278 134.901 120.85 134.685 121.413C134.567 121.709 134.379 121.991 134.119 122.257C133.933 122.442 133.646 122.662 133.256 122.916C132.867 123.163 132.461 123.342 132.041 123.454C131.627 123.565 131.092 123.621 130.436 123.621C130.003 123.621 129.487 123.559 128.887 123.435L127.773 123.11C127.464 123.024 127.269 122.946 127.189 122.878C127.158 122.854 127.13 122.795 127.105 122.702V122.6C127.105 122.532 127.09 122.108 127.059 121.329C127.047 120.927 127.04 120.643 127.04 120.476V120.123L127.894 120.104C128.191 120.791 128.383 121.205 128.469 121.348C128.661 121.663 128.871 121.92 129.1 122.118C129.335 122.309 129.613 122.464 129.935 122.582C130.257 122.693 130.606 122.749 130.983 122.749C131.317 122.749 131.685 122.677 132.087 122.535C132.489 122.393 132.811 122.161 133.052 121.839C133.3 121.512 133.423 121.162 133.423 120.791C133.423 120.333 133.21 119.91 132.783 119.52C132.523 119.279 131.824 118.957 130.686 118.555C129.548 118.153 128.76 117.794 128.321 117.479C127.882 117.164 127.535 116.743 127.282 116.217C127.028 115.685 126.901 115.175 126.901 114.687C126.901 113.703 127.254 112.868 127.959 112.182C128.664 111.495 129.703 111.152 131.076 111.152C131.373 111.152 131.812 111.204 132.393 111.31C132.746 111.371 133.213 111.501 133.794 111.699ZM138.533 123.407C138.533 123.222 138.551 123.002 138.588 122.749L139.748 122.544C139.89 122.514 140.06 122.464 140.258 122.396L140.379 120.077C140.354 119.242 140.342 118.617 140.342 118.203L140.351 117.98C140.37 117.726 140.379 117.089 140.379 116.069L140.36 115.8L140.379 115.021L140.37 114.213V113.814C140.37 113.456 140.342 113.035 140.286 112.553C140.28 112.509 140.255 112.435 140.212 112.33C140.163 112.312 140.107 112.299 140.045 112.293C139.989 112.287 139.931 112.278 139.869 112.265C139.628 112.222 139.371 112.191 139.099 112.172L138.96 112.135C138.793 112.117 138.666 112.092 138.579 112.061C138.561 111.882 138.551 111.767 138.551 111.718C138.551 111.644 138.57 111.542 138.607 111.412C138.731 111.387 138.904 111.375 139.127 111.375C139.349 111.375 139.504 111.371 139.59 111.365C140.345 111.446 140.905 111.489 141.27 111.495C141.437 111.495 141.604 111.501 141.771 111.514C141.944 111.52 142.095 111.523 142.225 111.523C142.429 111.523 142.927 111.492 143.719 111.43C143.849 111.399 143.991 111.384 144.146 111.384C144.374 111.384 144.566 111.396 144.721 111.421C144.727 111.551 144.73 111.644 144.73 111.699C144.73 111.798 144.718 111.919 144.693 112.061L143.06 112.321C142.924 112.383 142.856 112.472 142.856 112.59L142.884 112.933L142.893 113.082L142.884 113.49L142.865 113.805V113.879C142.872 113.947 142.875 114.006 142.875 114.056L142.865 115.234C142.872 115.345 142.875 115.429 142.875 115.484C142.875 115.515 142.868 115.614 142.856 115.781C142.85 115.88 142.847 115.982 142.847 116.087C142.847 116.18 142.856 116.4 142.875 116.746C143.048 116.777 143.193 116.796 143.311 116.802L144.684 116.83H145.352L147.022 116.839L148.645 116.792C148.855 116.792 149.078 116.771 149.313 116.728C149.325 116.517 149.335 116.001 149.341 115.178L149.359 114.761L149.304 113.184L149.239 112.534C149.22 112.491 149.177 112.451 149.109 112.414C148.893 112.29 148.46 112.151 147.81 111.996C147.693 111.971 147.581 111.94 147.476 111.903C147.489 111.687 147.513 111.511 147.55 111.375C147.686 111.368 147.77 111.365 147.801 111.365L148.701 111.375C149.276 111.449 149.86 111.486 150.454 111.486C150.59 111.486 150.699 111.483 150.779 111.477L151.985 111.439C152.096 111.433 152.205 111.427 152.31 111.421C152.532 111.371 152.761 111.347 152.996 111.347C153.176 111.347 153.392 111.356 153.646 111.375C153.639 111.616 153.624 111.835 153.599 112.033C153.03 112.151 152.656 112.237 152.477 112.293C152.303 112.342 152.127 112.414 151.948 112.506L151.892 112.692V112.85L151.901 113.091L151.892 113.211C151.88 113.341 151.874 113.44 151.874 113.508V113.74C151.88 114.019 151.883 114.173 151.883 114.204V115.382L151.892 116.273L151.874 117.451C151.867 117.723 151.877 118.28 151.901 119.121V120.438L151.92 121.533C151.92 121.737 151.914 121.985 151.901 122.275C152.031 122.312 152.152 122.343 152.263 122.368C152.845 122.492 153.284 122.619 153.581 122.749L153.608 123.398C153.361 123.404 153.216 123.407 153.172 123.407C152.876 123.407 152.535 123.389 152.152 123.352C151.645 123.296 150.828 123.268 149.703 123.268C149.196 123.268 148.54 123.308 147.736 123.389C147.649 123.389 147.544 123.37 147.421 123.333C147.427 123.049 147.442 122.847 147.467 122.73L148.181 122.563L148.933 122.442C149.007 122.424 149.103 122.396 149.22 122.359C149.288 121.858 149.325 121.026 149.332 119.863L149.341 119.075C149.304 118.747 149.285 118.354 149.285 117.896C149.056 117.878 148.809 117.866 148.543 117.859L144.238 117.813L144.155 117.804L144.09 117.794C144.047 117.794 143.997 117.798 143.942 117.804C143.781 117.81 143.645 117.813 143.533 117.813H143.274C143.156 117.813 143.023 117.835 142.875 117.878L142.838 118.574V118.694C142.85 118.861 142.856 118.97 142.856 119.019V121.895C142.856 122.056 142.865 122.22 142.884 122.387L142.977 122.442L144.34 122.656C144.408 122.681 144.461 122.696 144.498 122.702C144.579 122.721 144.647 122.749 144.702 122.786C144.721 122.928 144.73 123.024 144.73 123.073C144.73 123.154 144.718 123.265 144.693 123.407C144.47 123.413 144.282 123.417 144.127 123.417C143.991 123.417 143.864 123.413 143.747 123.407C143.691 123.407 143.638 123.404 143.589 123.398L142.281 123.342C141.972 123.311 141.539 123.296 140.982 123.296L140.787 123.305C140.527 123.318 140.376 123.327 140.333 123.333C139.949 123.382 139.349 123.407 138.533 123.407ZM157.419 123.444V122.776C157.543 122.739 157.747 122.687 158.032 122.619C158.434 122.52 158.734 122.418 158.931 122.312C159.043 122.121 159.098 121.855 159.098 121.515L159.089 120.42L159.108 118.305L159.098 117.804C159.142 116.579 159.163 115.948 159.163 115.911L159.145 114.677L159.173 114.176L159.126 113.119L159.117 112.72C159.111 112.658 159.089 112.559 159.052 112.423C158.798 112.305 158.387 112.231 157.818 112.2C157.682 112.194 157.574 112.185 157.493 112.172L157.466 111.356L160.119 111.467C160.447 111.48 160.651 111.486 160.731 111.486C161.096 111.486 161.681 111.461 162.485 111.412C162.936 111.381 163.221 111.362 163.338 111.356C163.344 111.473 163.347 111.572 163.347 111.653C163.347 111.758 163.341 111.894 163.329 112.061C163.082 112.148 162.797 112.231 162.475 112.312C162.16 112.386 161.9 112.463 161.696 112.543C161.659 112.704 161.64 112.936 161.64 113.239C161.64 113.505 161.65 113.722 161.668 113.889C161.65 114.934 161.64 115.738 161.64 116.301L161.65 118.75L161.622 119.993L161.64 121.849L161.631 122.201C161.631 122.251 161.644 122.322 161.668 122.415C162.046 122.495 162.389 122.551 162.698 122.582C162.754 122.588 162.942 122.612 163.264 122.656C163.289 122.841 163.301 122.996 163.301 123.12C163.301 123.188 163.298 123.293 163.292 123.435C163.211 123.435 163.15 123.438 163.106 123.444C162.908 123.457 162.794 123.463 162.763 123.463C162.72 123.463 162.639 123.454 162.522 123.435C162.435 123.423 162.024 123.379 161.288 123.305L159.646 123.287C159.318 123.287 158.842 123.318 158.217 123.379C157.809 123.417 157.543 123.438 157.419 123.444ZM166.852 111.43C167.205 111.449 167.511 111.477 167.771 111.514C168.259 111.582 168.825 111.616 169.468 111.616C169.691 111.616 170.263 111.597 171.185 111.56C172.564 111.504 173.81 111.477 174.923 111.477L176.603 111.458C176.98 111.458 177.536 111.504 178.272 111.597C178.384 111.721 178.439 111.888 178.439 112.098V114.009L178.458 114.39C178.458 114.427 178.455 114.482 178.449 114.557L178.068 114.575C178.019 114.575 177.914 114.569 177.753 114.557C177.697 114.433 177.623 114.25 177.53 114.009L177.159 113.351C177.017 113.072 176.819 112.788 176.565 112.497C176.411 112.454 176.213 112.429 175.972 112.423C175.91 112.417 175.721 112.401 175.406 112.376C174.831 112.327 174.212 112.302 173.55 112.302C172.796 112.302 172.122 112.315 171.528 112.339C171.509 112.494 171.5 113.103 171.5 114.167L171.519 115.726V116.895C171.673 116.913 171.806 116.922 171.918 116.922C173.025 116.922 173.813 116.901 174.283 116.857C174.753 116.814 175.044 116.755 175.155 116.681C175.267 116.601 175.366 116.465 175.452 116.273C175.508 116.137 175.616 115.682 175.777 114.909L175.897 114.9L176.436 114.909C176.46 115.46 176.473 115.877 176.473 116.162C176.473 116.811 176.467 117.229 176.454 117.414C176.448 117.6 176.445 117.745 176.445 117.85C176.445 118.017 176.454 118.286 176.473 118.657C176.491 119.022 176.501 119.294 176.501 119.474V119.678H175.842C175.817 119.579 175.771 119.375 175.703 119.065C175.579 118.49 175.468 118.132 175.369 117.989C175.294 117.878 175.171 117.794 174.998 117.739C174.874 117.695 174.416 117.674 173.625 117.674C172.691 117.674 171.989 117.699 171.519 117.748C171.512 117.909 171.509 118.014 171.509 118.063C171.509 118.799 171.522 119.412 171.546 119.9L171.528 121.904C171.528 122.139 171.611 122.3 171.778 122.387C172.032 122.517 172.808 122.582 174.107 122.582C174.967 122.582 175.696 122.517 176.296 122.387C176.711 122.294 177.076 122.087 177.391 121.765C177.812 121.351 178.161 120.769 178.439 120.021C178.631 120.002 178.789 119.993 178.913 119.993C178.981 119.993 179.083 119.996 179.219 120.002C179.2 120.157 179.185 120.287 179.172 120.392L179.117 120.67L178.773 122.424L178.606 123.481C178.204 123.5 177.886 123.509 177.651 123.509C177.305 123.509 176.38 123.478 174.877 123.417C173.819 123.373 172.545 123.352 171.055 123.352C170.313 123.352 169.4 123.382 168.318 123.444H167.928L166.806 123.481V122.841C166.923 122.81 167.158 122.776 167.511 122.739C168.154 122.665 168.599 122.566 168.847 122.442C168.915 122.263 168.949 122.037 168.949 121.765C168.949 121.66 168.946 121.481 168.939 121.227L168.949 120.939L168.921 117.442L168.93 116.394L168.884 114.909L168.893 113.861L168.81 112.71C168.81 112.68 168.803 112.618 168.791 112.525C168.729 112.457 168.636 112.414 168.513 112.395C168.445 112.383 168.352 112.364 168.234 112.339C167.882 112.265 167.542 112.222 167.214 112.209C167.096 112.203 166.96 112.191 166.806 112.172L166.852 111.43ZM197.092 111.699C197.154 111.91 197.209 112.228 197.259 112.655C197.333 113.292 197.37 113.787 197.37 114.139C197.37 114.25 197.358 114.371 197.333 114.501L197.24 114.529L196.572 114.482L196.461 114.464C196.189 113.647 195.917 113.094 195.645 112.803C195.174 112.308 194.621 112.061 193.984 112.061C193.378 112.061 192.895 112.222 192.537 112.543C192.184 112.859 192.008 113.252 192.008 113.722C192.008 114.118 192.184 114.498 192.537 114.863C192.883 115.228 193.619 115.577 194.745 115.911C195.122 116.022 195.576 116.202 196.108 116.449C196.646 116.697 197.055 116.966 197.333 117.256C197.704 117.64 197.958 118.011 198.094 118.37C198.236 118.722 198.307 119.164 198.307 119.696C198.307 120.278 198.199 120.85 197.982 121.413C197.865 121.709 197.676 121.991 197.416 122.257C197.231 122.442 196.943 122.662 196.554 122.916C196.164 123.163 195.759 123.342 195.338 123.454C194.924 123.565 194.389 123.621 193.733 123.621C193.3 123.621 192.784 123.559 192.184 123.435L191.071 123.11C190.762 123.024 190.567 122.946 190.486 122.878C190.455 122.854 190.428 122.795 190.403 122.702V122.6C190.403 122.532 190.387 122.108 190.356 121.329C190.344 120.927 190.338 120.643 190.338 120.476V120.123L191.191 120.104C191.488 120.791 191.68 121.205 191.767 121.348C191.958 121.663 192.169 121.92 192.397 122.118C192.632 122.309 192.911 122.464 193.232 122.582C193.554 122.693 193.903 122.749 194.281 122.749C194.615 122.749 194.983 122.677 195.385 122.535C195.787 122.393 196.108 122.161 196.35 121.839C196.597 121.512 196.721 121.162 196.721 120.791C196.721 120.333 196.507 119.91 196.081 119.52C195.821 119.279 195.122 118.957 193.984 118.555C192.846 118.153 192.057 117.794 191.618 117.479C191.179 117.164 190.833 116.743 190.579 116.217C190.326 115.685 190.199 115.175 190.199 114.687C190.199 113.703 190.551 112.868 191.256 112.182C191.961 111.495 193 111.152 194.374 111.152C194.67 111.152 195.11 111.204 195.691 111.31C196.043 111.371 196.51 111.501 197.092 111.699ZM212.638 111.625C212.719 111.811 212.883 112.339 213.13 113.211C213.241 113.607 213.3 114.028 213.306 114.473H212.462C211.868 113.632 211.256 113.029 210.625 112.664C209.994 112.293 209.289 112.107 208.51 112.107C207.551 112.107 206.778 112.482 206.191 113.23C205.393 114.244 204.994 115.658 204.994 117.47C204.994 118.521 205.062 119.27 205.198 119.715C205.421 120.438 205.702 121.029 206.042 121.487C206.302 121.833 206.642 122.108 207.063 122.312C207.607 122.591 208.188 122.73 208.807 122.73C209.487 122.73 210.143 122.52 210.774 122.099C211.411 121.672 212.02 121.038 212.601 120.197C212.83 120.154 213.13 120.129 213.501 120.123C213.476 120.358 213.436 120.602 213.381 120.856C213.362 120.955 213.291 121.348 213.167 122.034L213.084 122.312L212.954 122.749C212.577 123.039 212.045 123.259 211.358 123.407C210.678 123.549 209.84 123.621 208.844 123.621C208.083 123.621 207.363 123.549 206.682 123.407C206.008 123.265 205.43 123.039 204.947 122.73C204.242 122.285 203.689 121.802 203.287 121.283C202.885 120.763 202.585 120.197 202.387 119.585C202.195 118.973 202.099 118.286 202.099 117.525C202.099 115.682 202.705 114.161 203.918 112.961C205.136 111.761 206.689 111.161 208.575 111.161C209.342 111.161 210.062 111.201 210.737 111.282C211.417 111.356 212.051 111.47 212.638 111.625ZM216.987 123.407C216.987 123.222 217.006 123.002 217.043 122.749L218.203 122.544C218.345 122.514 218.515 122.464 218.713 122.396L218.833 120.077C218.809 119.242 218.796 118.617 218.796 118.203L218.806 117.98C218.824 117.726 218.833 117.089 218.833 116.069L218.815 115.8L218.833 115.021L218.824 114.213V113.814C218.824 113.456 218.796 113.035 218.741 112.553C218.734 112.509 218.71 112.435 218.666 112.33C218.617 112.312 218.561 112.299 218.499 112.293C218.444 112.287 218.385 112.278 218.323 112.265C218.082 112.222 217.825 112.191 217.553 112.172L217.414 112.135C217.247 112.117 217.12 112.092 217.034 112.061C217.015 111.882 217.006 111.767 217.006 111.718C217.006 111.644 217.024 111.542 217.061 111.412C217.185 111.387 217.358 111.375 217.581 111.375C217.804 111.375 217.958 111.371 218.045 111.365C218.799 111.446 219.359 111.489 219.724 111.495C219.891 111.495 220.058 111.501 220.225 111.514C220.398 111.52 220.55 111.523 220.68 111.523C220.884 111.523 221.382 111.492 222.173 111.43C222.303 111.399 222.445 111.384 222.6 111.384C222.829 111.384 223.021 111.396 223.175 111.421C223.181 111.551 223.184 111.644 223.184 111.699C223.184 111.798 223.172 111.919 223.147 112.061L221.515 112.321C221.379 112.383 221.31 112.472 221.31 112.59L221.338 112.933L221.348 113.082L221.338 113.49L221.32 113.805V113.879C221.326 113.947 221.329 114.006 221.329 114.056L221.32 115.234C221.326 115.345 221.329 115.429 221.329 115.484C221.329 115.515 221.323 115.614 221.31 115.781C221.304 115.88 221.301 115.982 221.301 116.087C221.301 116.18 221.31 116.4 221.329 116.746C221.502 116.777 221.648 116.796 221.765 116.802L223.138 116.83H223.806L225.476 116.839L227.1 116.792C227.31 116.792 227.532 116.771 227.768 116.728C227.78 116.517 227.789 116.001 227.795 115.178L227.814 114.761L227.758 113.184L227.693 112.534C227.675 112.491 227.631 112.451 227.563 112.414C227.347 112.29 226.914 112.151 226.265 111.996C226.147 111.971 226.036 111.94 225.931 111.903C225.943 111.687 225.968 111.511 226.005 111.375C226.141 111.368 226.224 111.365 226.255 111.365L227.155 111.375C227.73 111.449 228.315 111.486 228.909 111.486C229.045 111.486 229.153 111.483 229.233 111.477L230.439 111.439C230.551 111.433 230.659 111.427 230.764 111.421C230.987 111.371 231.216 111.347 231.451 111.347C231.63 111.347 231.846 111.356 232.1 111.375C232.094 111.616 232.078 111.835 232.054 112.033C231.485 112.151 231.11 112.237 230.931 112.293C230.758 112.342 230.582 112.414 230.402 112.506L230.347 112.692V112.85L230.356 113.091L230.347 113.211C230.334 113.341 230.328 113.44 230.328 113.508V113.74C230.334 114.019 230.337 114.173 230.337 114.204V115.382L230.347 116.273L230.328 117.451C230.322 117.723 230.331 118.28 230.356 119.121V120.438L230.374 121.533C230.374 121.737 230.368 121.985 230.356 122.275C230.486 122.312 230.606 122.343 230.718 122.368C231.299 122.492 231.738 122.619 232.035 122.749L232.063 123.398C231.816 123.404 231.67 123.407 231.627 123.407C231.33 123.407 230.99 123.389 230.606 123.352C230.099 123.296 229.283 123.268 228.157 123.268C227.65 123.268 226.994 123.308 226.19 123.389C226.104 123.389 225.999 123.37 225.875 123.333C225.881 123.049 225.897 122.847 225.921 122.73L226.636 122.563L227.387 122.442C227.461 122.424 227.557 122.396 227.675 122.359C227.743 121.858 227.78 121.026 227.786 119.863L227.795 119.075C227.758 118.747 227.74 118.354 227.74 117.896C227.511 117.878 227.263 117.866 226.997 117.859L222.693 117.813L222.609 117.804L222.544 117.794C222.501 117.794 222.452 117.798 222.396 117.804C222.235 117.81 222.099 117.813 221.988 117.813H221.728C221.61 117.813 221.477 117.835 221.329 117.878L221.292 118.574V118.694C221.304 118.861 221.31 118.97 221.31 119.019V121.895C221.31 122.056 221.32 122.22 221.338 122.387L221.431 122.442L222.795 122.656C222.863 122.681 222.915 122.696 222.953 122.702C223.033 122.721 223.101 122.749 223.157 122.786C223.175 122.928 223.184 123.024 223.184 123.073C223.184 123.154 223.172 123.265 223.147 123.407C222.925 123.413 222.736 123.417 222.581 123.417C222.445 123.417 222.319 123.413 222.201 123.407C222.145 123.407 222.093 123.404 222.043 123.398L220.735 123.342C220.426 123.311 219.993 123.296 219.436 123.296L219.242 123.305C218.982 123.318 218.83 123.327 218.787 123.333C218.404 123.382 217.804 123.407 216.987 123.407ZM235.874 123.444V122.776C235.997 122.739 236.201 122.687 236.486 122.619C236.888 122.52 237.188 122.418 237.386 122.312C237.497 122.121 237.553 121.855 237.553 121.515L237.544 120.42L237.562 118.305L237.553 117.804C237.596 116.579 237.618 115.948 237.618 115.911L237.599 114.677L237.627 114.176L237.581 113.119L237.571 112.72C237.565 112.658 237.544 112.559 237.506 112.423C237.253 112.305 236.842 112.231 236.273 112.2C236.137 112.194 236.028 112.185 235.948 112.172L235.92 111.356L238.573 111.467C238.901 111.48 239.105 111.486 239.186 111.486C239.551 111.486 240.135 111.461 240.939 111.412C241.391 111.381 241.675 111.362 241.793 111.356C241.799 111.473 241.802 111.572 241.802 111.653C241.802 111.758 241.796 111.894 241.783 112.061C241.536 112.148 241.251 112.231 240.93 112.312C240.614 112.386 240.355 112.463 240.151 112.543C240.113 112.704 240.095 112.936 240.095 113.239C240.095 113.505 240.104 113.722 240.123 113.889C240.104 114.934 240.095 115.738 240.095 116.301L240.104 118.75L240.076 119.993L240.095 121.849L240.086 122.201C240.086 122.251 240.098 122.322 240.123 122.415C240.5 122.495 240.843 122.551 241.152 122.582C241.208 122.588 241.397 122.612 241.718 122.656C241.743 122.841 241.756 122.996 241.756 123.12C241.756 123.188 241.752 123.293 241.746 123.435C241.666 123.435 241.604 123.438 241.561 123.444C241.363 123.457 241.248 123.463 241.217 123.463C241.174 123.463 241.094 123.454 240.976 123.435C240.89 123.423 240.478 123.379 239.742 123.305L238.1 123.287C237.772 123.287 237.296 123.318 236.672 123.379C236.263 123.417 235.997 123.438 235.874 123.444ZM245.307 111.43C245.659 111.449 245.965 111.477 246.225 111.514C246.714 111.582 247.279 111.616 247.923 111.616C248.145 111.616 248.717 111.597 249.639 111.56C251.018 111.504 252.265 111.477 253.378 111.477L255.057 111.458C255.434 111.458 255.991 111.504 256.727 111.597C256.838 111.721 256.894 111.888 256.894 112.098V114.009L256.912 114.39C256.912 114.427 256.909 114.482 256.903 114.557L256.523 114.575C256.473 114.575 256.368 114.569 256.207 114.557C256.152 114.433 256.077 114.25 255.985 114.009L255.614 113.351C255.471 113.072 255.273 112.788 255.02 112.497C254.865 112.454 254.667 112.429 254.426 112.423C254.364 112.417 254.176 112.401 253.86 112.376C253.285 112.327 252.667 112.302 252.005 112.302C251.25 112.302 250.576 112.315 249.982 112.339C249.964 112.494 249.954 113.103 249.954 114.167L249.973 115.726V116.895C250.128 116.913 250.261 116.922 250.372 116.922C251.479 116.922 252.268 116.901 252.738 116.857C253.208 116.814 253.498 116.755 253.61 116.681C253.721 116.601 253.82 116.465 253.907 116.273C253.962 116.137 254.071 115.682 254.231 114.909L254.352 114.9L254.89 114.909C254.915 115.46 254.927 115.877 254.927 116.162C254.927 116.811 254.921 117.229 254.909 117.414C254.902 117.6 254.899 117.745 254.899 117.85C254.899 118.017 254.909 118.286 254.927 118.657C254.946 119.022 254.955 119.294 254.955 119.474V119.678H254.296C254.272 119.579 254.225 119.375 254.157 119.065C254.033 118.49 253.922 118.132 253.823 117.989C253.749 117.878 253.625 117.794 253.452 117.739C253.328 117.695 252.871 117.674 252.079 117.674C251.145 117.674 250.443 117.699 249.973 117.748C249.967 117.909 249.964 118.014 249.964 118.063C249.964 118.799 249.976 119.412 250.001 119.9L249.982 121.904C249.982 122.139 250.066 122.3 250.233 122.387C250.486 122.517 251.263 122.582 252.561 122.582C253.421 122.582 254.151 122.517 254.751 122.387C255.165 122.294 255.53 122.087 255.846 121.765C256.266 121.351 256.616 120.769 256.894 120.021C257.086 120.002 257.243 119.993 257.367 119.993C257.435 119.993 257.537 119.996 257.673 120.002C257.655 120.157 257.639 120.287 257.627 120.392L257.571 120.67L257.228 122.424L257.061 123.481C256.659 123.5 256.34 123.509 256.105 123.509C255.759 123.509 254.834 123.478 253.331 123.417C252.274 123.373 251 123.352 249.509 123.352C248.767 123.352 247.855 123.382 246.772 123.444H246.383L245.26 123.481V122.841C245.378 122.81 245.613 122.776 245.965 122.739C246.608 122.665 247.054 122.566 247.301 122.442C247.369 122.263 247.403 122.037 247.403 121.765C247.403 121.66 247.4 121.481 247.394 121.227L247.403 120.939L247.375 117.442L247.385 116.394L247.338 114.909L247.348 113.861L247.264 112.71C247.264 112.68 247.258 112.618 247.245 112.525C247.184 112.457 247.091 112.414 246.967 112.395C246.899 112.383 246.806 112.364 246.689 112.339C246.336 112.265 245.996 112.222 245.668 112.209C245.551 112.203 245.415 112.191 245.26 112.172L245.307 111.43ZM272.079 111.625C272.159 111.811 272.323 112.339 272.57 113.211C272.682 113.607 272.74 114.028 272.747 114.473H271.902C271.309 113.632 270.696 113.029 270.066 112.664C269.435 112.293 268.73 112.107 267.95 112.107C266.992 112.107 266.219 112.482 265.631 113.23C264.833 114.244 264.434 115.658 264.434 117.47C264.434 118.521 264.502 119.27 264.638 119.715C264.861 120.438 265.142 121.029 265.482 121.487C265.742 121.833 266.082 122.108 266.503 122.312C267.047 122.591 267.629 122.73 268.247 122.73C268.927 122.73 269.583 122.52 270.214 122.099C270.851 121.672 271.46 121.038 272.042 120.197C272.27 120.154 272.57 120.129 272.941 120.123C272.917 120.358 272.877 120.602 272.821 120.856C272.802 120.955 272.731 121.348 272.607 122.034L272.524 122.312L272.394 122.749C272.017 123.039 271.485 123.259 270.798 123.407C270.118 123.549 269.28 123.621 268.284 123.621C267.524 123.621 266.803 123.549 266.123 123.407C265.448 123.265 264.87 123.039 264.388 122.73C263.683 122.285 263.129 121.802 262.727 121.283C262.325 120.763 262.025 120.197 261.827 119.585C261.635 118.973 261.54 118.286 261.54 117.525C261.54 115.682 262.146 114.161 263.358 112.961C264.576 111.761 266.129 111.161 268.015 111.161C268.782 111.161 269.503 111.201 270.177 111.282C270.857 111.356 271.491 111.47 272.079 111.625ZM276.428 123.407C276.428 123.222 276.446 123.002 276.483 122.749L277.643 122.544C277.785 122.514 277.955 122.464 278.153 122.396L278.274 120.077C278.249 119.242 278.237 118.617 278.237 118.203L278.246 117.98C278.264 117.726 278.274 117.089 278.274 116.069L278.255 115.8L278.274 115.021L278.264 114.213V113.814C278.264 113.456 278.237 113.035 278.181 112.553C278.175 112.509 278.15 112.435 278.107 112.33C278.057 112.312 278.002 112.299 277.94 112.293C277.884 112.287 277.825 112.278 277.763 112.265C277.522 112.222 277.266 112.191 276.993 112.172L276.854 112.135C276.687 112.117 276.561 112.092 276.474 112.061C276.455 111.882 276.446 111.767 276.446 111.718C276.446 111.644 276.465 111.542 276.502 111.412C276.625 111.387 276.799 111.375 277.021 111.375C277.244 111.375 277.399 111.371 277.485 111.365C278.24 111.446 278.799 111.489 279.164 111.495C279.331 111.495 279.498 111.501 279.665 111.514C279.839 111.52 279.99 111.523 280.12 111.523C280.324 111.523 280.822 111.492 281.614 111.43C281.743 111.399 281.886 111.384 282.04 111.384C282.269 111.384 282.461 111.396 282.616 111.421C282.622 111.551 282.625 111.644 282.625 111.699C282.625 111.798 282.612 111.919 282.588 112.061L280.955 112.321C280.819 112.383 280.751 112.472 280.751 112.59L280.779 112.933L280.788 113.082L280.779 113.49L280.76 113.805V113.879C280.766 113.947 280.769 114.006 280.769 114.056L280.76 115.234C280.766 115.345 280.769 115.429 280.769 115.484C280.769 115.515 280.763 115.614 280.751 115.781C280.745 115.88 280.742 115.982 280.742 116.087C280.742 116.18 280.751 116.4 280.769 116.746C280.943 116.777 281.088 116.796 281.205 116.802L282.578 116.83H283.246L284.916 116.839L286.54 116.792C286.75 116.792 286.973 116.771 287.208 116.728C287.22 116.517 287.229 116.001 287.236 115.178L287.254 114.761L287.199 113.184L287.134 112.534C287.115 112.491 287.072 112.451 287.004 112.414C286.787 112.29 286.354 112.151 285.705 111.996C285.587 111.971 285.476 111.94 285.371 111.903C285.383 111.687 285.408 111.511 285.445 111.375C285.581 111.368 285.665 111.365 285.696 111.365L286.596 111.375C287.171 111.449 287.755 111.486 288.349 111.486C288.485 111.486 288.593 111.483 288.674 111.477L289.88 111.439C289.991 111.433 290.099 111.427 290.204 111.421C290.427 111.371 290.656 111.347 290.891 111.347C291.07 111.347 291.287 111.356 291.54 111.375C291.534 111.616 291.519 111.835 291.494 112.033C290.925 112.151 290.551 112.237 290.371 112.293C290.198 112.342 290.022 112.414 289.843 112.506L289.787 112.692V112.85L289.796 113.091L289.787 113.211C289.775 113.341 289.768 113.44 289.768 113.508V113.74C289.775 114.019 289.778 114.173 289.778 114.204V115.382L289.787 116.273L289.768 117.451C289.762 117.723 289.771 118.28 289.796 119.121V120.438L289.815 121.533C289.815 121.737 289.809 121.985 289.796 122.275C289.926 122.312 290.047 122.343 290.158 122.368C290.739 122.492 291.179 122.619 291.475 122.749L291.503 123.398C291.256 123.404 291.11 123.407 291.067 123.407C290.77 123.407 290.43 123.389 290.047 123.352C289.54 123.296 288.723 123.268 287.597 123.268C287.09 123.268 286.435 123.308 285.631 123.389C285.544 123.389 285.439 123.37 285.315 123.333C285.321 123.049 285.337 122.847 285.362 122.73L286.076 122.563L286.827 122.442C286.902 122.424 286.998 122.396 287.115 122.359C287.183 121.858 287.22 121.026 287.226 119.863L287.236 119.075C287.199 118.747 287.18 118.354 287.18 117.896C286.951 117.878 286.704 117.866 286.438 117.859L282.133 117.813L282.05 117.804L281.985 117.794C281.941 117.794 281.892 117.798 281.836 117.804C281.675 117.81 281.539 117.813 281.428 117.813H281.168C281.051 117.813 280.918 117.835 280.769 117.878L280.732 118.574V118.694C280.745 118.861 280.751 118.97 280.751 119.019V121.895C280.751 122.056 280.76 122.22 280.779 122.387L280.871 122.442L282.235 122.656C282.303 122.681 282.356 122.696 282.393 122.702C282.473 122.721 282.541 122.749 282.597 122.786C282.616 122.928 282.625 123.024 282.625 123.073C282.625 123.154 282.612 123.265 282.588 123.407C282.365 123.413 282.176 123.417 282.022 123.417C281.886 123.417 281.759 123.413 281.641 123.407C281.586 123.407 281.533 123.404 281.484 123.398L280.176 123.342C279.866 123.311 279.433 123.296 278.877 123.296L278.682 123.305C278.422 123.318 278.271 123.327 278.227 123.333C277.844 123.382 277.244 123.407 276.428 123.407ZM294.934 111.43C295.286 111.449 295.592 111.477 295.852 111.514C296.341 111.582 296.907 111.616 297.55 111.616C297.772 111.616 298.345 111.597 299.266 111.56C300.645 111.504 301.892 111.477 303.005 111.477L304.684 111.458C305.061 111.458 305.618 111.504 306.354 111.597C306.465 111.721 306.521 111.888 306.521 112.098V114.009L306.54 114.39C306.54 114.427 306.536 114.482 306.53 114.557L306.15 114.575C306.1 114.575 305.995 114.569 305.834 114.557C305.779 114.433 305.705 114.25 305.612 114.009L305.241 113.351C305.098 113.072 304.901 112.788 304.647 112.497C304.492 112.454 304.294 112.429 304.053 112.423C303.991 112.417 303.803 112.401 303.487 112.376C302.912 112.327 302.294 112.302 301.632 112.302C300.877 112.302 300.203 112.315 299.609 112.339C299.591 112.494 299.582 113.103 299.582 114.167L299.6 115.726V116.895C299.755 116.913 299.888 116.922 299.999 116.922C301.106 116.922 301.895 116.901 302.365 116.857C302.835 116.814 303.126 116.755 303.237 116.681C303.348 116.601 303.447 116.465 303.534 116.273C303.589 116.137 303.698 115.682 303.858 114.909L303.979 114.9L304.517 114.909C304.542 115.46 304.554 115.877 304.554 116.162C304.554 116.811 304.548 117.229 304.536 117.414C304.529 117.6 304.526 117.745 304.526 117.85C304.526 118.017 304.536 118.286 304.554 118.657C304.573 119.022 304.582 119.294 304.582 119.474V119.678H303.923C303.899 119.579 303.852 119.375 303.784 119.065C303.66 118.49 303.549 118.132 303.45 117.989C303.376 117.878 303.252 117.794 303.079 117.739C302.955 117.695 302.498 117.674 301.706 117.674C300.772 117.674 300.07 117.699 299.6 117.748C299.594 117.909 299.591 118.014 299.591 118.063C299.591 118.799 299.603 119.412 299.628 119.9L299.609 121.904C299.609 122.139 299.693 122.3 299.86 122.387C300.113 122.517 300.89 122.582 302.188 122.582C303.048 122.582 303.778 122.517 304.378 122.387C304.792 122.294 305.157 122.087 305.473 121.765C305.893 121.351 306.243 120.769 306.521 120.021C306.713 120.002 306.87 119.993 306.994 119.993C307.062 119.993 307.164 119.996 307.3 120.002C307.282 120.157 307.266 120.287 307.254 120.392L307.198 120.67L306.855 122.424L306.688 123.481C306.286 123.5 305.967 123.509 305.732 123.509C305.386 123.509 304.461 123.478 302.959 123.417C301.901 123.373 300.627 123.352 299.136 123.352C298.394 123.352 297.482 123.382 296.399 123.444H296.01L294.887 123.481V122.841C295.005 122.81 295.24 122.776 295.592 122.739C296.236 122.665 296.681 122.566 296.928 122.442C296.996 122.263 297.03 122.037 297.03 121.765C297.03 121.66 297.027 121.481 297.021 121.227L297.03 120.939L297.002 117.442L297.012 116.394L296.965 114.909L296.975 113.861L296.891 112.71C296.891 112.68 296.885 112.618 296.873 112.525C296.811 112.457 296.718 112.414 296.594 112.395C296.526 112.383 296.433 112.364 296.316 112.339C295.963 112.265 295.623 112.222 295.295 112.209C295.178 112.203 295.042 112.191 294.887 112.172L294.934 111.43ZM311.083 122.869C311.244 122.783 311.482 122.721 311.798 122.684C312.113 122.64 312.398 122.572 312.651 122.479C312.682 122.356 312.701 122.266 312.707 122.21C312.719 122.124 312.725 121.827 312.725 121.32L312.716 119.251L312.753 118.138L312.735 117.275L312.753 116.774C312.772 116.1 312.781 115.469 312.781 114.881C312.781 113.595 312.766 112.772 312.735 112.414L312.187 112.302C311.686 112.271 311.352 112.24 311.185 112.209L311.167 111.653L311.204 111.551C311.513 111.501 311.798 111.477 312.057 111.477C312.2 111.477 312.487 111.473 312.92 111.467C313.365 111.504 313.607 111.523 313.644 111.523L314.135 111.495L315.295 111.439C316.019 111.365 316.783 111.328 317.587 111.328C318.855 111.328 319.863 111.653 320.611 112.302C321.359 112.945 321.734 113.685 321.734 114.52C321.734 115.144 321.53 115.713 321.121 116.227C320.719 116.734 320.098 117.117 319.257 117.377C319.331 117.507 319.43 117.658 319.553 117.832C319.813 118.203 320.024 118.518 320.184 118.778L321.669 121.181C322.04 121.818 322.281 122.192 322.392 122.303C322.51 122.408 322.748 122.526 323.107 122.656C323.385 122.761 323.598 122.866 323.747 122.971C323.784 123.076 323.802 123.169 323.802 123.25C323.802 123.305 323.799 123.376 323.793 123.463H323.543L323.357 123.472L322.875 123.407H322.494C322.296 123.376 322.052 123.361 321.761 123.361L320.834 123.352C320.766 123.352 320.549 123.373 320.184 123.417C320.017 123.435 319.884 123.451 319.785 123.463L319.47 122.851C319.21 122.387 319.028 122.04 318.923 121.812C318.65 121.212 318.183 120.256 317.522 118.945C317.212 118.339 316.996 117.995 316.872 117.915C316.687 117.785 316.368 117.72 315.917 117.72C315.793 117.72 315.583 117.726 315.286 117.739C315.267 117.918 315.258 118.132 315.258 118.379L315.295 120.438L315.249 122.183C315.422 122.288 315.648 122.368 315.926 122.424C316.408 122.523 316.823 122.64 317.169 122.776C317.169 123.079 317.157 123.308 317.132 123.463C317.015 123.457 316.94 123.454 316.909 123.454L316.529 123.472C315.199 123.355 314.411 123.296 314.163 123.296C314.003 123.296 313.888 123.299 313.82 123.305L312.54 123.389C312.15 123.432 311.794 123.454 311.473 123.454H311.074C311.062 123.299 311.055 123.2 311.055 123.157C311.055 123.089 311.065 122.993 311.083 122.869ZM315.258 116.867C315.555 116.879 315.771 116.885 315.907 116.885C316.959 116.885 317.704 116.697 318.143 116.319C318.582 115.942 318.802 115.438 318.802 114.807C318.802 114.417 318.746 114.053 318.635 113.712C318.53 113.366 318.397 113.109 318.236 112.942C318.007 112.701 317.707 112.519 317.336 112.395C317.064 112.302 316.628 112.256 316.028 112.256C315.744 112.256 315.499 112.271 315.295 112.302L315.286 112.479L315.295 113.731L315.277 114.492L315.286 115.503C315.274 115.787 315.264 116.155 315.258 116.607V116.867Z" fill="#959595"/>
<path d="M494.819 132.5L497.542 104.697H504.683L506.13 115.304C506.346 116.917 506.524 118.465 506.664 119.951C506.816 121.423 506.937 122.858 507.025 124.254C507.254 121.804 507.444 119.875 507.597 118.465C507.762 117.043 507.895 115.99 507.997 115.304L509.787 104.697H516.852L519.194 132.5H513.576L512.986 119.589C512.973 119.284 512.954 118.827 512.929 118.218C512.764 114.841 512.681 112.073 512.681 109.915L509.063 132.5H505.045L501.636 109.763C501.636 111.654 501.522 114.358 501.293 117.875C501.243 118.675 501.205 119.271 501.179 119.665L500.322 132.5H494.819ZM538.968 123.302H542.662C542.282 121.36 541.939 119.329 541.634 117.208C541.329 115.076 541.063 112.829 540.834 110.467C540.555 112.549 540.257 114.663 539.939 116.809C539.635 118.941 539.311 121.106 538.968 123.302ZM531.56 132.5L538.035 104.697H543.843L550.013 132.5H544.471L543.538 127.625H537.959L537.102 132.5H531.56ZM569.102 116.751C569.165 116.751 569.267 116.758 569.406 116.771C569.559 116.783 569.667 116.79 569.73 116.79C570.936 116.79 571.844 116.453 572.453 115.78C573.063 115.107 573.367 114.117 573.367 112.81C573.367 111.477 573.088 110.505 572.529 109.896C571.971 109.287 571.076 108.982 569.844 108.982C569.654 108.982 569.508 108.988 569.406 109.001C569.305 109.001 569.21 109.007 569.121 109.02L569.102 116.751ZM563.732 132.5V104.697H569.502C572.675 104.697 574.973 105.319 576.395 106.563C577.83 107.808 578.547 109.794 578.547 112.524C578.547 114.504 578.179 116.098 577.442 117.304C576.719 118.497 575.621 119.335 574.148 119.817L579.48 132.5H573.634L569.102 120.998V132.5H563.732ZM595.941 132.5V109.839H591.694V104.697H605.767V109.839H601.52V132.5H595.941ZM624.227 123.302H627.922C627.541 121.36 627.198 119.329 626.893 117.208C626.589 115.076 626.322 112.829 626.093 110.467C625.814 112.549 625.516 114.663 625.198 116.809C624.894 118.941 624.57 121.106 624.227 123.302ZM616.82 132.5L623.294 104.697H629.102L635.272 132.5H629.731L628.798 127.625H623.218L622.361 132.5H616.82ZM648.991 132.5V104.697H654.608L660.226 119.665C660.391 120.147 660.62 120.89 660.912 121.893C661.216 122.883 661.559 124.051 661.94 125.397C661.648 123.429 661.432 121.626 661.292 119.989C661.153 118.338 661.083 116.802 661.083 115.38V104.697H666.225V132.5H661.083L654.989 116.942C654.888 116.713 654.621 115.768 654.189 114.104C653.986 113.343 653.828 112.746 653.713 112.314C653.84 113.394 653.936 114.612 653.999 115.971C654.062 117.316 654.094 118.929 654.094 120.808V132.5H648.991ZM686.703 129.339C686.703 130.304 686.38 131.11 685.732 131.757C685.097 132.405 684.304 132.729 683.352 132.729C682.412 132.729 681.619 132.405 680.971 131.757C680.324 131.11 680 130.304 680 129.339C680 128.387 680.324 127.593 680.971 126.958C681.619 126.311 682.412 125.987 683.352 125.987C684.291 125.987 685.085 126.311 685.732 126.958C686.38 127.593 686.703 128.387 686.703 129.339Z" fill="#959595"/>
<path d="M874.224 131.28C871.39 131.28 868.907 130.591 866.775 129.213C864.643 127.835 862.992 125.911 861.822 123.441C860.678 120.971 860.106 118.124 860.106 114.9C860.106 111.676 860.691 108.829 861.861 106.359C863.057 103.863 864.734 101.939 866.892 100.587C869.076 99.209 871.585 98.52 874.419 98.52C875.537 98.52 876.668 98.715 877.812 99.105C878.982 99.495 880.035 100.041 880.971 100.743L883.584 98.52H884.403V108.192H883.584L881.166 102.147C880.256 101.315 879.19 100.652 877.968 100.158C876.772 99.664 875.589 99.417 874.419 99.417C872.599 99.417 870.987 99.885 869.583 100.821C868.205 101.757 867.126 103.122 866.346 104.916C865.566 106.71 865.176 108.842 865.176 111.312V118.449C865.176 120.919 865.553 123.051 866.307 124.845C867.061 126.639 868.114 128.017 869.466 128.979C870.818 129.915 872.404 130.383 874.224 130.383C875.55 130.383 876.876 130.097 878.202 129.525C879.528 128.927 880.633 128.134 881.517 127.146L883.779 120.867H884.598V130.89H883.779L880.971 128.901C880.035 129.655 878.969 130.24 877.773 130.656C876.577 131.072 875.394 131.28 874.224 131.28ZM894.548 130.89C892.884 130.89 891.519 130.461 890.453 129.603C889.387 128.719 888.854 127.419 888.854 125.703C888.854 123.259 889.881 121.53 891.935 120.516C893.989 119.476 896.368 118.956 899.072 118.956H901.685V115.953C901.685 114.601 901.529 113.561 901.217 112.833C900.931 112.079 900.476 111.559 899.852 111.273C899.228 110.961 898.383 110.805 897.317 110.805C896.095 110.805 895.185 111.052 894.587 111.546C893.989 112.014 893.69 112.651 893.69 113.457C893.69 114.211 894.054 114.705 894.782 114.939C894.782 115.589 894.535 116.161 894.041 116.655C893.547 117.149 892.962 117.396 892.286 117.396C891.558 117.396 890.973 117.201 890.531 116.811C890.089 116.395 889.868 115.771 889.868 114.939C889.868 113.431 890.622 112.222 892.13 111.312C893.638 110.402 895.523 109.947 897.785 109.947C902.985 109.947 905.585 112.209 905.585 116.733V127.887C905.585 128.459 905.702 128.901 905.936 129.213C906.196 129.499 906.56 129.642 907.028 129.642C907.47 129.642 907.821 129.499 908.081 129.213C908.341 128.901 908.471 128.485 908.471 127.965H909.29C909.29 128.875 908.991 129.59 908.393 130.11C907.821 130.63 907.015 130.89 905.975 130.89C904.779 130.89 903.765 130.552 902.933 129.876C902.127 129.174 901.711 128.095 901.685 126.639C901.061 127.965 900.099 129.005 898.799 129.759C897.525 130.513 896.108 130.89 894.548 130.89ZM896.693 129.174C897.395 129.174 898.11 128.966 898.838 128.55C899.592 128.134 900.229 127.536 900.749 126.756C901.269 125.95 901.581 124.988 901.685 123.87V119.814H899.072C896.94 119.814 895.341 120.295 894.275 121.257C893.235 122.193 892.715 123.519 892.715 125.235C892.715 126.665 893.053 127.679 893.729 128.277C894.405 128.875 895.393 129.174 896.693 129.174ZM918.548 130.89C916.416 130.89 914.635 130.435 913.205 129.525C911.775 128.615 911.06 127.432 911.06 125.976C911.06 125.222 911.255 124.637 911.645 124.221C912.061 123.779 912.607 123.558 913.283 123.558C913.803 123.558 914.245 123.688 914.609 123.948C914.973 124.208 915.233 124.572 915.389 125.04C914.817 125.664 914.531 126.327 914.531 127.029C914.531 127.835 914.895 128.537 915.623 129.135C916.351 129.733 917.326 130.032 918.548 130.032C920.186 130.032 921.525 129.668 922.565 128.94C923.605 128.186 924.125 127.185 924.125 125.937C924.125 125.209 923.904 124.663 923.462 124.299C923.02 123.935 922.162 123.519 920.888 123.051L914.999 120.906C912.685 120.074 911.528 118.527 911.528 116.265C911.528 114.419 912.165 112.911 913.439 111.741C914.713 110.545 916.468 109.947 918.704 109.947C920.55 109.947 922.123 110.376 923.423 111.234C924.749 112.066 925.412 113.262 925.412 114.822C925.412 115.446 925.243 115.953 924.905 116.343C924.567 116.707 924.125 116.889 923.579 116.889C923.033 116.889 922.578 116.746 922.214 116.46C921.876 116.148 921.707 115.732 921.707 115.212C922.045 114.952 922.279 114.679 922.409 114.393C922.539 114.081 922.604 113.717 922.604 113.301C922.604 112.573 922.279 111.975 921.629 111.507C921.005 111.039 920.03 110.805 918.704 110.805C917.56 110.805 916.572 110.987 915.74 111.351C914.934 111.689 914.323 112.144 913.907 112.716C913.491 113.288 913.283 113.873 913.283 114.471C913.283 115.095 913.504 115.589 913.946 115.953C914.414 116.317 915.259 116.72 916.481 117.162L921.941 119.112C923.215 119.58 924.177 120.23 924.827 121.062C925.477 121.894 925.802 122.973 925.802 124.299C925.802 126.197 925.204 127.77 924.008 129.018C922.812 130.266 920.992 130.89 918.548 130.89ZM932.961 105.774C932.233 105.774 931.609 105.527 931.089 105.033C930.569 104.513 930.309 103.889 930.309 103.161C930.309 102.433 930.556 101.822 931.05 101.328C931.57 100.834 932.207 100.587 932.961 100.587C933.663 100.587 934.261 100.834 934.755 101.328C935.249 101.822 935.496 102.433 935.496 103.161C935.496 103.889 935.249 104.513 934.755 105.033C934.261 105.527 933.663 105.774 932.961 105.774ZM928.827 130.5V129.72L931.557 129.33V111.507L928.827 111.117V110.337H935.457V129.33L938.187 129.72V130.5H928.827ZM940.062 129.72L942.792 129.33V111.468L940.062 111.078V110.298H946.692V114.51C947.654 113.106 948.785 112.001 950.085 111.195C951.385 110.363 952.789 109.947 954.297 109.947C956.169 109.947 957.638 110.415 958.704 111.351C959.796 112.287 960.342 113.678 960.342 115.524V129.33L963.072 129.72V130.5H954.102V129.72L956.442 129.33V115.602C956.442 114.25 956.169 113.21 955.623 112.482C955.077 111.728 954.232 111.351 953.088 111.351C951.892 111.351 950.735 111.793 949.617 112.677C948.525 113.535 947.55 114.601 946.692 115.875V129.33L949.032 129.72V130.5H940.062V129.72ZM965.325 129.681L968.913 129.096V100.704L965.325 100.158V99.3H977.571C981.419 99.3 984.279 100.119 986.151 101.757C988.023 103.395 988.959 105.761 988.959 108.855C988.959 111.949 988.023 114.315 986.151 115.953C984.279 117.591 981.419 118.41 977.571 118.41H973.203V129.096L976.791 129.681V130.5H965.325V129.681ZM977.025 117.474C981.835 117.474 984.24 114.861 984.24 109.635V108.075C984.24 102.875 981.835 100.275 977.025 100.275H973.203V117.474H977.025ZM997.151 130.89C995.487 130.89 994.122 130.461 993.056 129.603C991.99 128.719 991.457 127.419 991.457 125.703C991.457 123.259 992.484 121.53 994.538 120.516C996.592 119.476 998.971 118.956 1001.68 118.956H1004.29V115.953C1004.29 114.601 1004.13 113.561 1003.82 112.833C1003.53 112.079 1003.08 111.559 1002.46 111.273C1001.83 110.961 1000.99 110.805 999.92 110.805C998.698 110.805 997.788 111.052 997.19 111.546C996.592 112.014 996.293 112.651 996.293 113.457C996.293 114.211 996.657 114.705 997.385 114.939C997.385 115.589 997.138 116.161 996.644 116.655C996.15 117.149 995.565 117.396 994.889 117.396C994.161 117.396 993.576 117.201 993.134 116.811C992.692 116.395 992.471 115.771 992.471 114.939C992.471 113.431 993.225 112.222 994.733 111.312C996.241 110.402 998.126 109.947 1000.39 109.947C1005.59 109.947 1008.19 112.209 1008.19 116.733V127.887C1008.19 128.459 1008.31 128.901 1008.54 129.213C1008.8 129.499 1009.16 129.642 1009.63 129.642C1010.07 129.642 1010.42 129.499 1010.68 129.213C1010.94 128.901 1011.07 128.485 1011.07 127.965H1011.89C1011.89 128.875 1011.59 129.59 1011 130.11C1010.42 130.63 1009.62 130.89 1008.58 130.89C1007.38 130.89 1006.37 130.552 1005.54 129.876C1004.73 129.174 1004.31 128.095 1004.29 126.639C1003.66 127.965 1002.7 129.005 1001.4 129.759C1000.13 130.513 998.711 130.89 997.151 130.89ZM999.296 129.174C999.998 129.174 1000.71 128.966 1001.44 128.55C1002.2 128.134 1002.83 127.536 1003.35 126.756C1003.87 125.95 1004.18 124.988 1004.29 123.87V119.814H1001.68C999.543 119.814 997.944 120.295 996.878 121.257C995.838 122.193 995.318 123.519 995.318 125.235C995.318 126.665 995.656 127.679 996.332 128.277C997.008 128.875 997.996 129.174 999.296 129.174ZM1021.15 130.89C1019.02 130.89 1017.24 130.435 1015.81 129.525C1014.38 128.615 1013.66 127.432 1013.66 125.976C1013.66 125.222 1013.86 124.637 1014.25 124.221C1014.66 123.779 1015.21 123.558 1015.89 123.558C1016.41 123.558 1016.85 123.688 1017.21 123.948C1017.58 124.208 1017.84 124.572 1017.99 125.04C1017.42 125.664 1017.13 126.327 1017.13 127.029C1017.13 127.835 1017.5 128.537 1018.23 129.135C1018.95 129.733 1019.93 130.032 1021.15 130.032C1022.79 130.032 1024.13 129.668 1025.17 128.94C1026.21 128.186 1026.73 127.185 1026.73 125.937C1026.73 125.209 1026.51 124.663 1026.07 124.299C1025.62 123.935 1024.77 123.519 1023.49 123.051L1017.6 120.906C1015.29 120.074 1014.13 118.527 1014.13 116.265C1014.13 114.419 1014.77 112.911 1016.04 111.741C1017.32 110.545 1019.07 109.947 1021.31 109.947C1023.15 109.947 1024.73 110.376 1026.03 111.234C1027.35 112.066 1028.02 113.262 1028.02 114.822C1028.02 115.446 1027.85 115.953 1027.51 116.343C1027.17 116.707 1026.73 116.889 1026.18 116.889C1025.64 116.889 1025.18 116.746 1024.82 116.46C1024.48 116.148 1024.31 115.732 1024.31 115.212C1024.65 114.952 1024.88 114.679 1025.01 114.393C1025.14 114.081 1025.21 113.717 1025.21 113.301C1025.21 112.573 1024.88 111.975 1024.23 111.507C1023.61 111.039 1022.63 110.805 1021.31 110.805C1020.16 110.805 1019.18 110.987 1018.34 111.351C1017.54 111.689 1016.93 112.144 1016.51 112.716C1016.09 113.288 1015.89 113.873 1015.89 114.471C1015.89 115.095 1016.11 115.589 1016.55 115.953C1017.02 116.317 1017.86 116.72 1019.08 117.162L1024.54 119.112C1025.82 119.58 1026.78 120.23 1027.43 121.062C1028.08 121.894 1028.41 122.973 1028.41 124.299C1028.41 126.197 1027.81 127.77 1026.61 129.018C1025.42 130.266 1023.6 130.89 1021.15 130.89ZM1035.56 105.774C1034.84 105.774 1034.21 105.527 1033.69 105.033C1033.17 104.513 1032.91 103.889 1032.91 103.161C1032.91 102.433 1033.16 101.822 1033.65 101.328C1034.17 100.834 1034.81 100.587 1035.56 100.587C1036.27 100.587 1036.86 100.834 1037.36 101.328C1037.85 101.822 1038.1 102.433 1038.1 103.161C1038.1 103.889 1037.85 104.513 1037.36 105.033C1036.86 105.527 1036.27 105.774 1035.56 105.774ZM1031.43 130.5V129.72L1034.16 129.33V111.507L1031.43 111.117V110.337H1038.06V129.33L1040.79 129.72V130.5H1031.43ZM1042.67 129.72L1045.4 129.33V111.468L1042.67 111.078V110.298H1049.3V114.51C1050.26 113.106 1051.39 112.001 1052.69 111.195C1053.99 110.363 1055.39 109.947 1056.9 109.947C1058.77 109.947 1060.24 110.415 1061.31 111.351C1062.4 112.287 1062.95 113.678 1062.95 115.524V129.33L1065.68 129.72V130.5H1056.71V129.72L1059.05 129.33V115.602C1059.05 114.25 1058.77 113.21 1058.23 112.482C1057.68 111.728 1056.84 111.351 1055.69 111.351C1054.5 111.351 1053.34 111.793 1052.22 112.677C1051.13 113.535 1050.15 114.601 1049.3 115.875V129.33L1051.64 129.72V130.5H1042.67V129.72Z" fill="#959595"/>
<path d="M1268.62 103.139L1261.53 127H1258.52L1253.03 107.146L1247.5 127H1244.57L1237.48 103.139H1241.01L1246.02 122.064L1251.06 103.139H1255.04L1260.08 122.064L1265.09 103.139H1268.62ZM1281.47 123.326C1282.33 122.015 1282.77 120.493 1282.77 118.762C1282.77 117.03 1282.33 115.496 1281.47 114.16C1280.6 112.824 1279.36 112.156 1277.76 112.156C1276.1 112.156 1274.84 112.824 1273.97 114.16C1273.11 115.471 1272.67 117.005 1272.67 118.762C1272.67 120.518 1273.11 122.052 1273.97 123.363C1274.84 124.65 1276.1 125.293 1277.76 125.293C1279.36 125.293 1280.6 124.637 1281.47 123.326ZM1285.88 118.762C1285.88 121.582 1285.12 123.734 1283.58 125.219C1282.05 126.703 1280.11 127.445 1277.76 127.445C1275.36 127.445 1273.4 126.703 1271.89 125.219C1270.38 123.734 1269.63 121.582 1269.63 118.762C1269.63 115.917 1270.38 113.764 1271.89 112.305C1273.4 110.82 1275.36 110.078 1277.76 110.078C1280.13 110.078 1282.07 110.82 1283.58 112.305C1285.12 113.764 1285.88 115.917 1285.88 118.762ZM1299.85 123.326C1300.71 122.015 1301.15 120.493 1301.15 118.762C1301.15 117.03 1300.71 115.496 1299.85 114.16C1298.98 112.824 1297.74 112.156 1296.14 112.156C1294.48 112.156 1293.22 112.824 1292.35 114.16C1291.48 115.471 1291.05 117.005 1291.05 118.762C1291.05 120.518 1291.48 122.052 1292.35 123.363C1293.22 124.65 1294.48 125.293 1296.14 125.293C1297.74 125.293 1298.98 124.637 1299.85 123.326ZM1304.26 118.762C1304.26 121.582 1303.5 123.734 1301.96 125.219C1300.43 126.703 1298.49 127.445 1296.14 127.445C1293.74 127.445 1291.78 126.703 1290.27 125.219C1288.76 123.734 1288.01 121.582 1288.01 118.762C1288.01 115.917 1288.76 113.764 1290.27 112.305C1291.78 110.82 1293.74 110.078 1296.14 110.078C1298.51 110.078 1300.45 110.82 1301.96 112.305C1303.5 113.764 1304.26 115.917 1304.26 118.762ZM1315.63 105.588C1314.99 105.316 1314.39 105.18 1313.85 105.18C1312.96 105.18 1312.31 105.402 1311.92 105.848C1311.52 106.293 1311.32 107.035 1311.32 108.074V110.486H1315.29V112.639H1311.32V127H1308.32V112.639H1305.05V110.486H1308.32V107.963C1308.32 106.033 1308.71 104.697 1309.51 103.955C1310.32 103.213 1311.57 102.842 1313.25 102.842C1314.12 102.842 1314.91 102.941 1315.63 103.139V105.588ZM1328 123.326C1328.86 122.015 1329.3 120.493 1329.3 118.762C1329.3 117.03 1328.86 115.496 1328 114.16C1327.13 112.824 1325.89 112.156 1324.29 112.156C1322.63 112.156 1321.37 112.824 1320.5 114.16C1319.63 115.471 1319.2 117.005 1319.2 118.762C1319.2 120.518 1319.63 122.052 1320.5 123.363C1321.37 124.65 1322.63 125.293 1324.29 125.293C1325.89 125.293 1327.13 124.637 1328 123.326ZM1332.41 118.762C1332.41 121.582 1331.65 123.734 1330.11 125.219C1328.58 126.703 1326.64 127.445 1324.29 127.445C1321.89 127.445 1319.93 126.703 1318.42 125.219C1316.91 123.734 1316.16 121.582 1316.16 118.762C1316.16 115.917 1316.91 113.764 1318.42 112.305C1319.93 110.82 1321.89 110.078 1324.29 110.078C1326.66 110.078 1328.6 110.82 1330.11 112.305C1331.65 113.764 1332.41 115.917 1332.41 118.762ZM1344.22 113.158C1340.17 113.158 1338.14 114.692 1338.14 117.76V127H1335.13V110.486H1338.14V112.75C1338.61 111.934 1339.24 111.352 1340.03 111.006C1340.85 110.66 1342.24 110.486 1344.22 110.486V113.158ZM1357.82 118.873C1357.82 117.018 1357.32 115.422 1356.33 114.086C1355.37 112.725 1354.15 112.045 1352.7 112.045C1351.24 112.045 1350.15 112.713 1349.43 114.049C1348.71 115.36 1348.35 116.894 1348.35 118.65C1348.35 120.432 1348.8 121.953 1349.69 123.215C1350.58 124.452 1351.73 125.07 1353.14 125.07C1354.65 125.07 1355.8 124.439 1356.59 123.178C1357.41 121.891 1357.82 120.456 1357.82 118.873ZM1360.86 127H1357.93V125.107C1356.59 126.666 1354.96 127.445 1353.03 127.445C1351.03 127.445 1349.24 126.641 1347.69 125.033C1346.13 123.4 1345.35 121.409 1345.35 119.059C1345.35 117.574 1345.55 116.201 1345.94 114.939C1346.34 113.653 1347.07 112.527 1348.13 111.562C1349.22 110.573 1350.57 110.078 1352.18 110.078C1354.77 110.078 1356.69 110.932 1357.93 112.639V103.139H1360.86V127ZM1390.42 109.707C1390.42 108.346 1389.96 107.394 1389.05 106.85C1388.13 106.305 1386.81 106.033 1385.08 106.033H1380.88V113.307H1385.08C1388.64 113.307 1390.42 112.107 1390.42 109.707ZM1394.35 127H1390.98C1390.7 125.788 1390.48 124.687 1390.31 123.697C1390.13 122.683 1389.99 121.879 1389.86 121.285C1389.66 120.395 1389.49 119.689 1389.34 119.17C1389.22 118.65 1389.03 118.18 1388.79 117.76C1388.54 117.339 1388.3 117.042 1388.08 116.869C1387.88 116.671 1387.54 116.51 1387.04 116.387C1386.57 116.263 1386.13 116.201 1385.71 116.201C1385.29 116.176 1384.64 116.164 1383.78 116.164H1380.88V127H1377.62V103.139H1385.11C1388.03 103.139 1390.2 103.646 1391.61 104.66C1393.04 105.65 1393.76 107.332 1393.76 109.707C1393.76 111.711 1392.27 113.418 1389.31 114.828C1390.79 115.15 1391.8 116.003 1392.35 117.389C1392.52 117.859 1392.76 119.207 1393.05 121.434C1393.38 123.635 1393.81 125.491 1394.35 127ZM1408.09 117.055C1408.12 116.882 1408.13 116.634 1408.13 116.312C1408.13 115.1 1407.78 114.111 1407.09 113.344C1406.42 112.552 1405.35 112.156 1403.86 112.156C1401.44 112.156 1399.97 113.789 1399.45 117.055H1408.09ZM1411.25 121.73C1410.98 123.314 1410.22 124.662 1408.98 125.775C1407.77 126.889 1406.04 127.445 1403.79 127.445C1402.48 127.445 1401.31 127.173 1400.3 126.629C1399.31 126.085 1398.53 125.38 1397.96 124.514C1397.39 123.623 1396.97 122.695 1396.7 121.73C1396.43 120.766 1396.29 119.776 1396.29 118.762C1396.29 117.673 1396.43 116.646 1396.7 115.682C1396.97 114.692 1397.39 113.764 1397.96 112.898C1398.53 112.033 1399.34 111.352 1400.37 110.857C1401.41 110.338 1402.63 110.078 1404.01 110.078C1405.25 110.078 1406.32 110.264 1407.24 110.635C1408.18 111.006 1408.9 111.464 1409.39 112.008C1409.91 112.527 1410.32 113.158 1410.62 113.9C1410.94 114.618 1411.14 115.273 1411.21 115.867C1411.31 116.436 1411.36 117.03 1411.36 117.648C1411.36 118.217 1411.32 118.737 1411.25 119.207H1399.45C1399.45 121.038 1399.81 122.51 1400.52 123.623C1401.24 124.736 1402.35 125.293 1403.86 125.293C1405.22 125.293 1406.23 124.934 1406.87 124.217C1407.54 123.499 1407.95 122.671 1408.09 121.73H1411.25ZM1439.2 127H1436.2V116.312C1436.2 115.026 1435.89 114.012 1435.27 113.27C1434.65 112.527 1433.72 112.156 1432.48 112.156C1431.35 112.156 1430.36 112.614 1429.52 113.529C1428.67 114.42 1428.25 115.348 1428.25 116.312V127H1425.25V116.312C1425.25 115.199 1424.9 114.234 1424.21 113.418C1423.54 112.577 1422.68 112.156 1421.61 112.156C1420.4 112.156 1419.35 112.614 1418.46 113.529C1417.59 114.445 1417.16 115.372 1417.16 116.312V127H1414.15V110.486H1417.16V112.75C1418.49 110.969 1420.13 110.078 1422.06 110.078C1423.57 110.078 1424.72 110.301 1425.51 110.746C1426.32 111.191 1427.05 111.934 1427.7 112.973C1429.11 111.043 1430.89 110.078 1433.04 110.078C1437.15 110.078 1439.2 112.156 1439.2 116.312V127ZM1445.63 127H1442.63V110.486H1445.63V127ZM1445.74 106.182H1442.51V103.139H1445.74V106.182ZM1464.2 127H1460.41L1455.59 120.506L1450.91 127H1447.46L1454.03 118.428L1447.94 110.486H1451.69L1456.03 116.424L1460.3 110.486H1463.75L1457.63 118.428L1464.2 127Z" fill="#959595"/>
</svg>
