<svg width="72" height="72" viewBox="0 0 72 72" fill="none" xmlns="http://www.w3.org/2000/svg">
<rect x="4" y="4" width="64" height="64" rx="32" fill="#245EE0" fill-opacity="0.1"/>
<path d="M46.6666 48V45.3333C46.6666 43.9188 46.1047 42.5623 45.1045 41.5621C44.1043 40.5619 42.7477 40 41.3333 40H30.6666C29.2521 40 27.8955 40.5619 26.8953 41.5621C25.8952 42.5623 25.3333 43.9188 25.3333 45.3333V48M41.3333 29.3333C41.3333 32.2789 38.9454 34.6667 35.9999 34.6667C33.0544 34.6667 30.6666 32.2789 30.6666 29.3333C30.6666 26.3878 33.0544 24 35.9999 24C38.9454 24 41.3333 26.3878 41.3333 29.3333Z" stroke="#245EE0" stroke-opacity="0.9" stroke-width="2.66667" stroke-linecap="round" stroke-linejoin="round"/>
<rect x="2" y="2" width="68" height="68" rx="34" stroke="#245EE0" stroke-opacity="0.5" stroke-width="4"/>
</svg>
