<svg width="218" height="61" viewBox="0 0 218 61" fill="none" xmlns="http://www.w3.org/2000/svg">
<rect y="29.6985" width="42" height="42" rx="10" transform="rotate(-45 0 29.6985)" fill="#245EE0"/>
<rect x="15.627" y="30.3849" width="42" height="42" rx="10" transform="rotate(-45 15.627 30.3849)" fill="#245EE0" fill-opacity="0.25"/>
<path d="M34.3336 25.7918V22.5418C34.3336 20.1485 32.3935 18.2084 30.0002 18.2084C27.607 18.2084 25.6669 20.1485 25.6669 22.5418V25.7918M20.8916 27.2564L20.2416 34.1897C20.0568 36.1611 19.9644 37.1467 20.2915 37.9081C20.5788 38.5769 21.0824 39.1298 21.7214 39.4784C22.4489 39.8751 23.4389 39.8751 25.4189 39.8751H34.5816C36.5616 39.8751 37.5516 39.8751 38.279 39.4784C38.9181 39.1298 39.4217 38.5769 39.709 37.9081C40.0361 37.1467 39.9437 36.1611 39.7589 34.1897L39.1089 27.2564C38.9528 25.5917 38.8748 24.7594 38.5004 24.1301C38.1707 23.5759 37.6836 23.1323 37.101 22.8558C36.4396 22.5418 35.6036 22.5418 33.9316 22.5418L26.0689 22.5418C24.3969 22.5418 23.5609 22.5418 22.8994 22.8558C22.3169 23.1323 21.8297 23.5759 21.5 24.1301C21.1257 24.7594 21.0476 25.5917 20.8916 27.2564Z" stroke="white" stroke-width="1.5" stroke-linecap="round" stroke-linejoin="round"/>
<path d="M21.2 25.1759C21.6 23.2508 22.1441 23.0303 22.4 22.8657C22.6559 22.7012 24 22.4807 24.8 22.4807L35.2 22.0957C37.44 21.7877 38.4 22.8657 38.8 23.6358C39.2 24.4059 40 35.4947 40 36.7268C40 37.9589 38.4 38.7803 37.6 39.037H24.8C21.402 39.1136 20 38.2669 20 36.3418C20 34.4166 20.88 26.716 21.2 25.1759Z" fill="white" fill-opacity="0.25"/>
<path d="M89.6776 42.5417V17.8145H105.518V21.5694H94.157V28.2825H104.432V32.0375H94.157V42.5417H89.6776ZM114.662 42.916C113.487 42.916 112.428 42.7068 111.486 42.2882C110.553 41.8616 109.812 41.2337 109.265 40.4047C108.726 39.5756 108.456 38.5533 108.456 37.3379C108.456 36.2915 108.649 35.4262 109.035 34.742C109.422 34.0578 109.949 33.5105 110.617 33.1C111.285 32.6895 112.038 32.3796 112.875 32.1703C113.72 31.953 114.593 31.796 115.495 31.6994C116.582 31.5867 117.463 31.4861 118.139 31.3976C118.815 31.301 119.306 31.1561 119.612 30.9629C119.926 30.7617 120.083 30.4518 120.083 30.0332V29.9608C120.083 29.0512 119.813 28.3469 119.274 27.8479C118.735 27.3488 117.958 27.0993 116.944 27.0993C115.873 27.0993 115.024 27.3327 114.396 27.7996C113.776 28.2664 113.358 28.8178 113.141 29.4537L109.06 28.8741C109.382 27.7472 109.913 26.8055 110.653 26.0488C111.394 25.2842 112.299 24.7127 113.37 24.3344C114.441 23.948 115.624 23.7548 116.92 23.7548C117.813 23.7548 118.703 23.8595 119.588 24.0687C120.473 24.278 121.282 24.6241 122.015 25.1071C122.747 25.582 123.335 26.23 123.778 27.051C124.228 27.872 124.454 28.8983 124.454 30.1298V42.5417H120.252V39.9942H120.107C119.842 40.5093 119.467 40.9923 118.984 41.443C118.509 41.8857 117.91 42.2439 117.185 42.5176C116.469 42.7832 115.628 42.916 114.662 42.916ZM115.797 39.7044C116.674 39.7044 117.435 39.5313 118.079 39.1852C118.723 38.831 119.218 38.3642 119.564 37.7846C119.918 37.2051 120.095 36.5732 120.095 35.889V33.7037C119.958 33.8164 119.725 33.921 119.395 34.0176C119.073 34.1142 118.711 34.1987 118.308 34.2712C117.906 34.3436 117.507 34.408 117.113 34.4643C116.718 34.5207 116.376 34.569 116.087 34.6092C115.435 34.6978 114.851 34.8426 114.336 35.0439C113.821 35.2451 113.414 35.5268 113.116 35.889C112.819 36.2432 112.67 36.702 112.67 37.2655C112.67 38.0704 112.964 38.6781 113.551 39.0886C114.139 39.4991 114.887 39.7044 115.797 39.7044ZM143.591 28.8983L139.607 29.3329C139.494 28.9305 139.297 28.5522 139.015 28.198C138.742 27.8438 138.371 27.5581 137.905 27.3408C137.438 27.1234 136.866 27.0148 136.19 27.0148C135.281 27.0148 134.516 27.212 133.896 27.6064C133.284 28.0008 132.982 28.5119 132.991 29.1398C132.982 29.6791 133.18 30.1177 133.582 30.4558C133.993 30.7939 134.669 31.0716 135.611 31.2889L138.774 31.965C140.529 32.3434 141.833 32.943 142.686 33.764C143.547 34.5851 143.982 35.6596 143.99 36.9878C143.982 38.1549 143.64 39.1852 142.964 40.0787C142.295 40.9641 141.366 41.6563 140.174 42.1554C138.983 42.6544 137.615 42.904 136.069 42.904C133.799 42.904 131.972 42.4291 130.588 41.4792C129.203 40.5214 128.378 39.1892 128.113 37.4828L132.375 37.0723C132.568 37.9094 132.978 38.5413 133.606 38.9679C134.234 39.3945 135.051 39.6078 136.057 39.6078C137.096 39.6078 137.929 39.3945 138.557 38.9679C139.192 38.5413 139.51 38.014 139.51 37.3862C139.51 36.855 139.305 36.4163 138.895 36.0702C138.492 35.724 137.864 35.4584 137.011 35.2733L133.848 34.6092C132.069 34.239 130.753 33.6151 129.9 32.7378C129.046 31.8524 128.624 30.7335 128.632 29.3812C128.624 28.2382 128.934 27.2482 129.562 26.4111C130.197 25.5659 131.079 24.9139 132.206 24.4551C133.341 23.9882 134.649 23.7548 136.13 23.7548C138.303 23.7548 140.013 24.2176 141.261 25.1433C142.517 26.069 143.294 27.3206 143.591 28.8983ZM152.05 31.6753V42.5417H147.679V17.8145H151.953V27.1476H152.17C152.605 26.1012 153.277 25.2761 154.187 24.6724C155.104 24.0607 156.271 23.7548 157.688 23.7548C158.976 23.7548 160.099 24.0245 161.057 24.5638C162.015 25.1031 162.755 25.8919 163.278 26.9302C163.81 27.9686 164.075 29.2363 164.075 30.7335V42.5417H159.704V31.4096C159.704 30.162 159.382 29.1921 158.739 28.4998C158.103 27.7996 157.209 27.4494 156.058 27.4494C155.285 27.4494 154.593 27.6185 153.981 27.9565C153.378 28.2865 152.903 28.7655 152.557 29.3933C152.219 30.0212 152.05 30.7818 152.05 31.6753ZM168.615 42.5417V23.9963H172.986V42.5417H168.615ZM170.813 21.3642C170.121 21.3642 169.525 21.1348 169.026 20.676C168.527 20.2091 168.277 19.6497 168.277 18.9977C168.277 18.3377 168.527 17.7783 169.026 17.3194C169.525 16.8526 170.121 16.6192 170.813 16.6192C171.513 16.6192 172.109 16.8526 172.6 17.3194C173.099 17.7783 173.348 18.3377 173.348 18.9977C173.348 19.6497 173.099 20.2091 172.6 20.676C172.109 21.1348 171.513 21.3642 170.813 21.3642ZM185.655 42.904C183.844 42.904 182.274 42.5055 180.946 41.7087C179.618 40.9118 178.588 39.797 177.855 38.3642C177.131 36.9314 176.769 35.2572 176.769 33.3415C176.769 31.4257 177.131 29.7475 177.855 28.3067C178.588 26.8658 179.618 25.747 180.946 24.9501C182.274 24.1533 183.844 23.7548 185.655 23.7548C187.466 23.7548 189.036 24.1533 190.364 24.9501C191.692 25.747 192.718 26.8658 193.443 28.3067C194.175 29.7475 194.541 31.4257 194.541 33.3415C194.541 35.2572 194.175 36.9314 193.443 38.3642C192.718 39.797 191.692 40.9118 190.364 41.7087C189.036 42.5055 187.466 42.904 185.655 42.904ZM185.679 39.4025C186.661 39.4025 187.482 39.1329 188.142 38.5936C188.802 38.0462 189.293 37.3138 189.615 36.3962C189.945 35.4785 190.11 34.4563 190.11 33.3294C190.11 32.1944 189.945 31.1682 189.615 30.2506C189.293 29.3249 188.802 28.5884 188.142 28.041C187.482 27.4937 186.661 27.22 185.679 27.22C184.673 27.22 183.836 27.4937 183.168 28.041C182.508 28.5884 182.013 29.3249 181.683 30.2506C181.361 31.1682 181.2 32.1944 181.2 33.3294C181.2 34.4563 181.361 35.4785 181.683 36.3962C182.013 37.3138 182.508 38.0462 183.168 38.5936C183.836 39.1329 184.673 39.4025 185.679 39.4025ZM202.707 31.6753V42.5417H198.336V23.9963H202.514V27.1476H202.731C203.158 26.1092 203.838 25.2842 204.772 24.6724C205.713 24.0607 206.876 23.7548 208.261 23.7548C209.541 23.7548 210.656 24.0285 211.605 24.5758C212.563 25.1232 213.304 25.916 213.827 26.9544C214.358 27.9927 214.62 29.2524 214.612 30.7335V42.5417H210.241V31.4096C210.241 30.1701 209.919 29.2001 209.275 28.4998C208.639 27.7996 207.758 27.4494 206.631 27.4494C205.866 27.4494 205.186 27.6185 204.59 27.9565C204.003 28.2865 203.54 28.7655 203.202 29.3933C202.872 30.0212 202.707 30.7818 202.707 31.6753Z" fill="#344054"/>
</svg>
